<svg xmlns:xlink="http://www.w3.org/1999/xlink" viewBox="0 6766.5599999999995 58492.35382308846 76809.59999999999" style="max-height: 500px" version="1.1" xml:space="preserve" xmlns="http://www.w3.org/2000/svg" width="58492.35382308846" height="76809.59999999999">
 <defs>
  <style type="text/css">
   
    .str0 {stroke:#FEFEFE;stroke-width:7.62;stroke-miterlimit:22.9256}
    .str1 {stroke:#211D21;stroke-width:7.62;stroke-miterlimit:22.9256}
    .fil1 {fill:#FEFEFE}
    .fil0 {fill:#C5C6C6}
    .fil2 {fill:#211D21}
   
  </style>
 </defs>
 <g id="Layer_x0020_1">
  <metadata id="CorelCorpID_0Corel-Layer"/>
  <rect height="91440" width="121920" class="fil0"/>
  <g id="_1979260452128">
   <path d="M75763.3 12290.78c217.88,-341.35 1872.7,-601.75 2430.56,-699.44 245.71,-42.96 498.27,-29.48 737.69,-68.18 230.57,-37.26 410.24,-126.08 636.18,-164.61 525.62,-89.69 918.45,-64.22 1451.4,-85.28 1014.93,-40.1 1692.81,-368.18 2850.82,-234.2 528.94,61.16 584.51,365.81 604.36,905.47 83.54,2267.89 -241.07,12287.76 42.32,13790.97 508.13,59.82 1700.9,-208.13 2137.34,-347.44 150.43,-524.45 63.43,-3074.63 64.3,-3833.75l2.36 -7672.85c0.48,-2638.14 -196.85,-2650.58 1173.15,-2611.43 718.84,20.58 1082.13,114.26 1126.05,809.41 122.99,1944.64 -205.53,13010.09 69.64,13277.95 259.97,132.8 1945.85,195.84 2154.66,66.75 194.83,-244.28 44.71,-8388.25 46.42,-9874.72 0.73,-600.18 -187.08,-3074.24 173.37,-3362.74 69.28,-55.32 -18.81,-4.94 85.99,-60.12 105.19,-55.41 83.93,-46.73 215.52,-57.99 366.91,-31.37 637.61,229.39 1385.86,354.13 554.07,92.36 1210.04,348.63 1717.22,550.3 1165.11,463.12 3505.53,1771.84 4390.03,2485.15 577.32,465.59 3066.03,2939.87 3106.22,3712.5l1139.89 2115.32c291.99,558.33 1034.57,2974.15 1123.13,3748.01 326.03,2845.94 49.79,4627.71 -690.87,7295.39 -130.58,470.3 -1207.83,2594.16 -1577.74,3362.65 -848.42,1762.77 -1055.43,960.46 -1187.58,2942.85 -31.2,468.59 -43.41,584.42 -155.18,754.65 -196.28,-1456.31 -311.67,-2569.65 -825.95,-3846.44 -229.95,-571.03 -443.12,-1080.64 -723.25,-1610.53 -491.9,-930.05 -1274.83,-1911.63 -1966.94,-2705.73 -339.2,-389.15 -2118.75,-1638.81 -2651.62,-2018.58 -912.86,-650.61 -2343.56,-983.4 -3409.77,-1325.96 -293.09,-94.16 -626.02,-140.58 -948.42,-163.35 -440.84,-31.23 -687.17,-121.2 -1066.6,-157.76 -1088.37,-104.91 -3192.15,78.23 -4139.91,391.73 -398.76,131.84 -522.09,34.99 -887.03,247.59 -852.82,496.78 -757.54,119.46 -2395.88,1142.42 -199.54,124.6 -522.87,312.55 -678.44,454.86 -535.84,490.55 -489.37,264.39 -988.82,812.47 -683.94,750.47 -2045.29,1498.07 -2991.09,3479.36l-1075.45 2397.62c-117.01,242.4 -149.42,691.92 -214.03,988.99 -297.49,1368.45 -222.15,2921.59 -7.47,4332.44 135.69,891.58 751.06,2977.69 1144.08,3591.1l974.16 1360.95c475.36,646.42 1566.17,1979.1 2175.95,2495.17 419.48,354.95 882.06,668.67 1428.63,973.15 935.18,520.99 2102.51,1168.29 3277.62,1387.74 763.16,142.49 1157.42,306.65 2010.22,338.24 728.48,27.04 1589.42,-2.36 2292.12,118.28 -1750.02,652.66 -2980.39,460.61 -4734.56,256.13 -599,-69.84 -980.87,-213.81 -1517.14,-270 -286.85,597.9 -585.77,1608.87 -778.83,2285.8 -188.25,659.9 -526.58,1841.19 -577.63,2496.35 -93.93,1205.41 -132.62,684.98 -234.84,1293.11 -77.78,462.75 -99.91,889.16 -187.64,1342.98 -191.34,990.03 -120.32,1889.27 -254.83,2895.19 -257.31,1924.17 -32.89,3887.88 121.03,5811.02 68.88,860.85 222.37,1799.18 472.91,2577.06 136.95,425.23 86.74,742.18 272.33,1257.81 601.44,1670.88 546.52,1722.58 1501.69,3169.34 424.67,643.34 852.13,1163.07 1411.08,1658.42 957.09,848.19 2672,1746.3 4449.76,1765.62 1694.05,18.37 2267.52,-254.38 3507.58,-1106.42 237.2,-162.95 575.67,-582.82 789.78,-813.09 430.43,-462.97 698.18,-1502.42 802.14,-2262.94 138.61,-1013.9 -137.43,-1953.72 -130.1,-2998.03 315.3,-121.22 464.46,-299.06 788.97,-483.33 299.15,-169.8 569.2,-312.12 879.47,-452.81 260.2,-117.88 679.68,-256.88 893.96,-376.68 341.44,-191 591.64,-105.5 1018.22,-314.11 665.75,-325.6 1197.13,-523.71 1432.2,-1173.62 349.16,-965.21 -448.4,-1236.13 -592.77,-1921.87 816.63,-287.24 2073.57,95.19 3308.52,-430.77 1531.06,-652.01 10.25,-4902.57 2645.83,-4968.44 721.71,-17.95 2879.91,-83.21 3416.18,-378.26 1003.87,-552.32 1498.29,-803.17 1606.43,-2211.33 166.41,-2167.97 -1249.13,-6495.44 -389.37,-10455.18 263.2,-1212.18 1816.9,-3972.61 2420.23,-6114.41l582.68 -2282.57c252.95,-1051.42 383.7,-2166.01 528.6,-3273.84 269.83,-2062.64 159.84,-5086.98 -250.04,-7142.6 -631.29,-3166.11 -598.35,-2576.58 -1948.74,-5655.14 -834.54,-1902.49 -385.67,-898.2 -1370.11,-2363.95 -1598.85,-2380.52 -1418.23,-2176.74 -3439.57,-4168.28 -989.52,-974.89 -817.8,-886.85 -2021.16,-1782.95l-1578.92 -1222.34c-155.23,-106.85 -428.46,-247.76 -635,-364.61 -391.25,-221.44 -808.54,-500.66 -1191.84,-678.66 -489.54,-227.37 -838.17,-396.62 -1293.81,-641.63 -924.29,-496.95 -1747.94,-693.57 -2710.22,-1090.98 -993.74,-410.32 -1873.57,-598.66 -2958.8,-840.91 -1160.48,-259.11 -2194.37,-306 -3377.62,-422.15 -553.06,-54.3 -1049.98,-213.89 -1598.46,-250.37 -1199.32,-79.83 -6102.53,125.39 -7297.04,292.21 -534.22,74.62 -1116.96,247.93 -1645.67,286.15 -2365.07,170.85 -3941.15,1007.1 -5948.22,1654.57 -845.89,272.81 -1733.31,865.43 -2531.35,1269.29 -108.36,54.84 -2412.28,1211.06 -2261.76,1411.86 215.46,287.39 2790.92,-1149.05 3340.84,-1398.86 659.65,-299.76 3148.53,-1161.09 3680.39,-1194.29zm20254.56 21401.91c844.15,469.12 1746.14,4372.2 1521.94,5580.36 -263.42,1419.89 -539.94,2894.8 -1277.8,4129.27 -1096.96,1835.27 -2715.75,3360.04 -4747.64,4131.24 -3593.23,1363.84 -4745.2,435.31 -6100.79,586.22 923.84,636.26 4516.2,727.35 5769.26,340.99 801.52,-247.23 1736.93,-468.03 2388.02,-877.74 648.31,-408.04 2346.06,-1551.03 2751.75,-2181.93 652.02,-1014.28 1397.04,-1991.45 1788.37,-3080.46 726.74,-2022.18 749.12,-3307.09 501.67,-5716.53 -7.55,-1672.4 -2312.17,-4785.95 -3769.74,-5855.64 -434.92,-319.14 -1087.59,-529.86 -1592.18,-809.24 -1618.23,-895.99 -4187.96,-1407.43 -6019.77,-956.67 424.31,198.98 959.7,126.65 1450.81,187.64 1347.47,167.53 3204.25,791.01 4336.59,1535.33 408.44,268.49 1967.98,1697.98 2215.27,2056.02l784.24 931.14zm-8968.93 256.97c-2399.76,534.61 -4406.97,3013.8 -3775.11,5638.07 1023.33,4249.9 6279.66,5128.87 8650.72,1811.93 1247.56,-1745.21 1207.29,-3537.83 135.63,-5401.09 -339.98,-590.94 -741.4,-841.93 -1191.76,-1207.91 -911.77,-740.92 -2261.46,-1188.14 -3819.48,-841z" class="fil1"/>
   <path d="M75763.29 12290.8c2219.68,-450.92 3738.55,-804.67 6095.9,-922.09 376.14,-18.76 778.59,-21.36 1161.26,-26.72 284.56,-4.01 840.53,-18.36 1094.59,137.52 405.84,4034.3 -225.69,10339.58 83.85,14500.84 407.34,136.96 1323.28,-152.56 1805.64,-235.94 1002.55,-173.29 1040.85,-135.86 1040.53,-1187.58 -0.55,-1667.18 -138.22,-12321.12 32.08,-13009 355.48,-185.5 1127.68,61.78 1522.18,221.68 246.26,621.13 101.42,5552.86 102.13,6648.95 1.57,2317.79 2.36,4635.58 2.36,6953.37 546.12,298.66 640.29,175.73 1319.34,255.08 1551.18,181.41 1660.8,1116.5 1617.3,-3005.04 -32.23,-3054.45 -162.1,-7413.66 30.97,-10235.25 569.52,-142.71 2717.57,710.42 3328.61,925.01 1080.57,379.44 2084.37,906.72 2933.81,1468.59 433.97,287.09 884.81,631.93 1263.15,939.66 417.9,339.89 816.33,686.7 1147.78,1053.85 660.22,731.23 897.9,918.94 1509.18,1759.15 236.1,324.52 266.67,373.14 510.81,637.76 -40.19,-772.59 -2528.91,-3246.89 -3106.23,-3712.46 -884.49,-713.34 -3224.9,-2022.04 -4390.02,-2485.17 -507.19,-201.66 -1163.15,-457.94 -1717.22,-550.29 -748.25,-124.75 -1018.94,-385.51 -1385.86,-354.15 -131.6,11.27 -110.32,2.6 -215.52,58 -104.81,55.16 -16.71,4.81 -85.98,60.13 -360.45,288.5 -172.66,2762.56 -173.37,3362.73 -1.73,1486.48 148.39,9630.43 -46.42,9874.72 -208.83,129.08 -1894.68,66.04 -2154.66,-66.75 -275.18,-267.85 53.35,-11333.3 -69.66,-13277.96 -43.9,-695.13 -407.18,-788.83 -1126.04,-809.39 -1370.01,-39.17 -1172.68,-26.72 -1173.15,2611.41l-2.37 7672.85c-0.87,759.12 86.13,3309.31 -64.3,3833.75 -436.42,139.32 -1629.2,407.26 -2137.33,347.45 -283.38,-1503.19 41.21,-11523.07 -42.32,-13790.98 -19.86,-539.65 -75.41,-844.31 -604.35,-905.46 -1158.03,-133.97 -1835.9,194.1 -2850.82,234.21 -532.95,21.04 -925.79,-4.42 -1451.42,85.26 -225.93,38.54 -405.6,127.35 -636.18,164.63 -239.41,38.69 -491.98,25.21 -737.69,68.16 -557.85,97.72 -2212.66,358.09 -2430.56,699.47z" class="fil1"/>
   <path d="M95812.58 27140.66c48.07,-1098.13 109.23,-7662.21 -90.39,-8207.46 -546.03,-154.77 -1849.69,-77.85 -2519.21,-74.15 -77.78,1565.84 -93.38,5058.99 -23.72,6767.16 29.79,731.77 -72.34,614.27 585.36,795.84 366.91,101.26 723.66,181.25 1028.79,371.64 316.55,197.56 537.13,362.18 1019.17,346.97z" class="fil1"/>
   <path d="M97278.18 22802.73c-216.08,1035.72 -112.37,4448.42 -8.9,5653.81l671.33 528.3c641,528.78 1382.62,1465.21 2023.46,1710.68 229.79,-989.38 123.01,-5926.63 84.79,-7751.02 -510.41,-404.35 -2739.08,-161.95 -2770.68,-141.77z" class="fil1"/>
   <path d="M99755 30246.89c1.81,-1086.08 159.03,-6791.43 -135.46,-7271.74 -424.84,-52.95 -1000.27,4.73 -1455.36,-0.08 -680.55,-7.09 -788.2,-56.58 -776.77,644.07l18.36 4435.42c63.44,383.3 483.46,611.91 723.5,810.73 153.51,127.12 214.74,231.69 370.85,359.83l795.69 675.5c182.75,156.12 220.81,287.48 459.19,346.27z" class="fil1"/>
   <path d="M79582.54 23088.87l5.44 4270.16c0.23,998.61 7.17,1019.73 1800.99,-164.62 505.13,-333.5 336.57,-177.7 657.38,-347.53 144.29,-76.44 68.09,-33.1 134.44,-84.48l30.97 -4054.55c-682.52,-270.93 -683.47,-172.19 -1459.92,-184.01 -1136.2,-17.34 -1169.3,-116 -1169.3,565.03z" class="fil1"/>
   <path d="M98612.65 36604.11c247.45,2409.44 225.07,3694.34 -501.66,5716.53 -391.34,1089 -1136.36,2066.17 -1788.39,3080.46 -405.68,630.91 -2103.44,1773.88 -2751.76,2181.93 -651.08,409.7 -1586.49,630.51 -2388,877.72 -1253.07,386.38 -4845.44,295.28 -5769.26,-340.98 1355.59,-150.91 2507.55,777.64 6100.78,-586.23 2031.89,-771.18 3650.69,-2295.96 4747.64,-4131.23 737.85,-1234.47 1014.37,-2709.37 1277.81,-4129.26 224.2,-1208.15 -677.79,-5111.24 -1521.94,-5580.37l844.86 2043.16c106.46,282.83 106.07,536.5 172.66,826.66 476.76,2079.25 274.95,4653.31 -845.41,6501.58 -215.14,354.86 -493.48,849.43 -765.03,1168.35 -168.02,197.25 -291.74,351.39 -460.38,543.36 -176.13,200.56 -333.26,292.28 -501.75,495.83 -325.61,393.24 -1722.26,1497.28 -2154.03,1718.09 -1897.68,970.64 -4444.64,1345.59 -6519.87,882.06 -938.24,-209.62 -2603.93,-909.01 -2766.66,-898.21 -95.27,6.23 93.31,-133.89 -214.26,68.17 611.6,550.68 1771.67,1120.67 2533.08,1347.23 1919.59,571.33 2972.73,891.75 5014.39,513.57 340.75,-63.04 1365.68,-215.06 1619.9,-309.07 569.6,-210.49 839.11,-439.33 1292.55,-644.93 820.35,-371.96 188.81,52.16 1255.82,-679.85 813.65,-558.17 1545.98,-1023.04 2062.86,-1804.54 1603.35,-2424.33 1694.84,-2431.89 2319.84,-5419.44 123.64,-590.95 114.34,-2040.64 -70.61,-2682.97 -65.88,-228.61 -70.77,-129 -114.43,-343.27 -45.86,-225.54 48.63,-238.38 -108.75,-414.35z" class="fil1 str0"/>
  </g>
  <g id="_1979260455152">
   <path d="M12321.75 13567.38c214.15,-335.5 1840.59,-591.43 2388.88,-687.44 241.49,-42.23 489.72,-28.98 725.04,-67.02 226.61,-36.62 403.2,-123.92 625.26,-161.78 516.61,-88.16 902.7,-63.12 1426.51,-83.82 997.53,-39.42 1663.78,-361.86 2801.93,-230.18 519.86,60.11 574.48,359.53 593.99,889.94 82.11,2228.99 -236.94,12077.01 41.59,13554.44 499.42,58.79 1671.73,-204.57 2100.68,-341.49 147.85,-515.45 62.35,-3021.89 63.21,-3767.99l2.31 -7541.26c0.47,-2592.88 -193.47,-2605.11 1153.03,-2566.64 706.52,20.23 1063.57,112.3 1106.74,795.53 120.88,1911.29 -202,12786.95 68.44,13050.22 255.52,130.52 1912.48,192.48 2117.71,65.61 191.49,-240.09 43.94,-8244.38 45.62,-9705.36 0.72,-589.89 -183.86,-3021.51 170.4,-3305.07 68.09,-54.37 -18.49,-4.86 84.51,-59.09 103.39,-54.45 82.5,-45.92 211.83,-56.99 360.61,-30.83 626.67,225.46 1362.09,348.06 544.56,90.77 1189.29,342.64 1687.76,540.86 1145.13,455.17 3445.41,1741.45 4314.74,2442.53 567.42,457.6 3013.45,2889.44 3052.94,3648.82l1120.35 2079.04c286.98,548.76 1016.82,2923.14 1103.87,3683.73 320.43,2797.12 48.93,4548.34 -679.03,7170.26 -128.34,462.24 -1187.11,2549.67 -1550.68,3304.98 -833.86,1732.53 -1037.33,943.99 -1167.21,2892.37 -30.66,460.56 -42.67,574.4 -152.51,741.71 -192.92,-1431.33 -306.33,-2525.57 -811.79,-3780.46 -226.01,-561.24 -435.52,-1062.11 -710.85,-1582.92 -483.46,-914.09 -1252.96,-1878.83 -1933.2,-2659.32 -333.38,-382.47 -2082.41,-1610.7 -2606.14,-1983.96 -897.2,-639.45 -2303.37,-966.53 -3351.3,-1303.22 -288.05,-92.54 -615.27,-138.16 -932.14,-160.54 -433.28,-30.7 -675.39,-119.12 -1048.31,-155.06 -1069.7,-103.11 -3137.4,76.89 -4068.91,385.01 -391.91,129.58 -513.13,34.39 -871.81,243.35 -838.2,488.26 -744.55,117.41 -2354.79,1122.83 -196.12,122.46 -513.9,307.18 -666.8,447.05 -526.66,482.14 -480.98,259.85 -971.86,798.54 -672.22,737.6 -2010.21,1472.38 -2939.79,3419.69l-1057.01 2356.5c-115,238.23 -146.85,680.05 -210.36,972.02 -292.39,1344.98 -218.34,2871.48 -7.34,4258.13 133.36,876.29 738.18,2926.62 1124.46,3529.51l957.45 1337.61c467.21,635.34 1539.31,1945.15 2138.63,2452.38 412.28,348.85 866.93,657.19 1404.12,956.46 919.15,512.05 2066.46,1148.24 3221.41,1363.93 750.08,140.04 1137.57,301.39 1975.74,332.44 715.99,26.58 1562.16,-2.32 2252.81,116.25 -1720,641.47 -2929.27,452.71 -4653.36,251.73 -588.72,-68.64 -964.05,-210.14 -1491.11,-265.36 -281.93,587.64 -575.73,1581.28 -765.48,2246.59 -185.02,648.59 -517.54,1809.62 -567.72,2453.54 -92.32,1184.74 -130.35,673.24 -230.81,1270.93 -76.45,454.81 -98.2,873.91 -184.42,1319.95 -188.06,973.04 -118.26,1856.86 -250.47,2845.53 -252.89,1891.17 -32.32,3821.2 118.96,5711.35 67.7,846.09 218.56,1768.33 464.8,2532.86 134.6,417.94 85.26,729.46 267.66,1236.24 591.13,1642.22 537.14,1693.03 1475.94,3114.99 417.38,632.3 837.5,1143.11 1386.87,1629.97 940.67,833.64 2626.18,1716.35 4373.44,1735.34 1665,18.05 2228.63,-250.02 3447.43,-1087.44 233.13,-160.16 565.79,-572.83 776.23,-799.15 423.05,-455.03 686.21,-1476.65 788.38,-2224.13 136.23,-996.51 -135.07,-1920.21 -127.87,-2946.6 309.89,-119.15 456.5,-293.94 775.44,-475.05 294.02,-166.89 559.44,-306.76 864.39,-445.04 255.73,-115.86 668.01,-252.48 878.63,-370.22 335.58,-187.73 581.49,-103.69 1000.75,-308.72 654.33,-320.02 1176.6,-514.73 1407.63,-1153.5 343.17,-948.65 -440.71,-1214.93 -582.6,-1888.91 802.63,-282.31 2038.01,93.57 3251.78,-423.37 1504.8,-640.83 10.07,-4818.48 2600.45,-4883.23 709.33,-17.64 2830.52,-81.78 3357.58,-371.77 986.66,-542.85 1472.6,-789.4 1578.89,-2173.4 163.55,-2130.79 -1227.71,-6384.04 -382.7,-10275.87 258.69,-1191.39 1785.74,-3904.47 2378.72,-6009.54l572.69 -2243.42c248.61,-1033.38 377.12,-2128.86 519.53,-3217.69 265.2,-2027.26 157.1,-4999.73 -245.74,-7020.09 -620.47,-3111.81 -588.09,-2532.39 -1915.33,-5558.15 -820.22,-1869.87 -379.05,-882.8 -1346.6,-2323.41 -1571.43,-2339.69 -1393.91,-2139.4 -3380.58,-4096.78 -972.55,-958.17 -803.78,-871.65 -1986.5,-1752.38l-1551.84 -1201.37c-152.57,-105.02 -421.11,-243.51 -624.1,-358.36 -384.55,-217.64 -794.68,-492.07 -1171.41,-667.02 -481.14,-223.47 -823.79,-389.81 -1271.62,-630.62 -908.43,-488.43 -1717.95,-681.68 -2663.73,-1072.27 -976.69,-403.28 -1841.44,-588.39 -2908.05,-826.49 -1140.58,-254.66 -2156.73,-300.75 -3319.69,-414.9 -543.58,-53.38 -1031.98,-210.23 -1571.05,-246.08 -1178.74,-78.47 -5997.86,123.23 -7171.89,287.2 -525.05,73.33 -1097.8,243.67 -1617.44,281.24 -2324.51,167.91 -3873.56,989.83 -5846.2,1626.19 -831.38,268.13 -1703.58,850.58 -2487.93,1247.52 -106.51,53.9 -2370.91,1190.28 -2222.98,1387.65 211.78,282.45 2743.06,-1129.35 3283.54,-1374.87 648.34,-294.63 3094.54,-1141.18 3617.27,-1173.81zm19907.18 21034.84c829.67,461.08 1716.19,4297.21 1495.84,5484.65 -258.92,1395.54 -530.69,2845.15 -1255.89,4058.45 -1078.15,1803.79 -2669.17,3302.41 -4666.22,4060.38 -3531.6,1340.45 -4663.81,427.85 -5996.15,576.17 907.99,625.34 4438.74,714.88 5670.31,335.14 787.77,-242.99 1707.14,-460 2347.06,-862.68 637.19,-401.05 2305.83,-1524.43 2704.56,-2144.51 640.83,-996.89 1373.07,-1957.3 1757.7,-3027.63 714.27,-1987.5 736.27,-3250.37 493.06,-5618.49 -7.42,-1643.71 -2272.51,-4703.86 -3705.09,-5755.2 -427.46,-313.67 -1068.93,-520.78 -1564.86,-795.37 -1590.48,-880.61 -4116.13,-1383.28 -5916.53,-940.26 417.03,195.57 943.24,124.48 1425.93,184.42 1324.36,164.66 3149.29,777.45 4262.21,1509.01 401.44,263.87 1934.23,1668.85 2177.27,2020.75l770.8 915.17zm-8815.11 252.56c-2358.6,525.44 -4331.38,2962.12 -3710.36,5541.37 1005.78,4177.02 6171.96,5040.91 8502.35,1780.86 1226.16,-1715.28 1186.58,-3477.15 133.3,-5308.46 -334.14,-580.8 -728.68,-827.49 -1171.32,-1187.19 -896.13,-728.21 -2222.67,-1167.76 -3753.97,-826.58z" class="fil2"/>
   <path d="M12321.75 13567.4c2181.6,-443.19 3674.43,-790.87 5991.34,-906.28 369.69,-18.43 765.24,-20.99 1141.35,-26.25 279.68,-3.95 826.11,-18.05 1075.81,135.15 398.88,3965.11 -221.82,10162.25 82.41,14252.14 400.36,134.61 1300.59,-149.95 1774.68,-231.9 985.35,-170.31 1022.99,-133.52 1022.68,-1167.21 -0.54,-1638.58 -135.85,-12109.79 31.52,-12785.88 349.39,-182.32 1108.35,60.73 1496.08,217.88 242.04,610.48 99.68,5457.62 100.38,6534.91 1.55,2278.03 2.32,4556.07 2.32,6834.11 536.75,293.54 629.3,172.72 1296.71,250.71 1524.58,178.3 1632.32,1097.35 1589.56,-2953.5 -31.67,-3002.06 -159.32,-7286.51 30.44,-10059.7 559.75,-140.27 2670.96,698.23 3271.52,909.14 1062.03,372.93 2048.63,891.17 2883.49,1443.4 426.53,282.16 869.64,621.1 1241.49,923.55 410.73,334.05 802.33,674.92 1128.09,1035.77 648.9,718.69 882.5,903.18 1483.3,1728.98 232.05,318.95 262.1,366.74 502.05,626.82 -39.5,-759.34 -2485.54,-3191.2 -3052.95,-3648.79 -869.33,-701.1 -3169.6,-1987.36 -4314.73,-2442.55 -498.49,-198.2 -1143.21,-450.07 -1687.77,-540.85 -735.42,-122.61 -1001.47,-378.9 -1362.09,-348.07 -129.34,11.07 -108.43,2.56 -211.83,57 -103.01,54.22 -16.42,4.73 -84.5,59.1 -354.27,283.55 -169.7,2715.18 -170.4,3305.06 -1.7,1460.99 145.85,9465.25 -45.62,9705.36 -205.25,126.86 -1862.19,64.9 -2117.71,-65.61 -270.46,-263.26 52.44,-11138.92 -68.46,-13050.22 -43.15,-683.21 -400.2,-775.3 -1106.72,-795.52 -1346.52,-38.49 -1152.58,-26.25 -1153.04,2566.63l-2.33 7541.25c-0.85,746.1 84.66,3252.55 -63.2,3767.99 -428.93,136.94 -1601.25,400.28 -2100.67,341.49 -278.52,-1477.41 40.51,-11325.43 -41.59,-13554.44 -19.52,-530.4 -74.12,-829.83 -593.98,-889.93 -1138.17,-131.67 -1804.42,190.76 -2801.93,230.19 -523.81,20.68 -909.91,-4.34 -1426.52,83.8 -222.06,37.88 -398.65,125.16 -625.28,161.8 -235.3,38.03 -483.53,24.78 -725.03,67 -548.29,96.04 -2174.72,351.94 -2388.87,687.47z" class="fil2"/>
   <path d="M32027.17 28162.57c47.24,-1079.3 107.35,-7530.8 -88.84,-8066.69 -536.67,-152.12 -1817.97,-76.52 -2476.01,-72.88 -76.44,1538.98 -91.78,4972.22 -23.31,6651.09 29.28,719.22 -71.1,603.74 575.32,782.19 360.62,99.53 711.25,178.14 1011.14,365.27 311.13,194.17 527.92,355.97 1001.7,341.02z" class="fil2"/>
   <path d="M33467.63 23899.04c-212.37,1017.96 -110.45,4372.12 -8.75,5556.83l659.82 519.25c630,519.7 1358.91,1440.07 1988.75,1681.34 225.85,-972.42 120.9,-5824.98 83.34,-7618.09 -501.66,-397.41 -2692.1,-159.16 -2723.16,-139.33z" class="fil2"/>
   <path d="M35901.97 31215.52c1.78,-1067.45 156.3,-6674.94 -133.14,-7147.02 -417.55,-52.05 -983.11,4.65 -1430.4,-0.08 -668.88,-6.97 -774.68,-55.61 -763.45,633.02l18.05 4359.35c62.35,376.73 475.17,601.42 711.09,796.83 150.88,124.93 211.06,227.71 364.49,353.65l782.04 663.92c179.61,153.44 217.02,282.55 451.32,340.33z" class="fil2"/>
   <path d="M16075.49 24180.27l5.34 4196.92c0.23,981.48 7.05,1002.24 1770.1,-161.8 496.48,-327.78 330.81,-174.65 646.11,-341.56 141.82,-75.13 66.92,-32.53 132.14,-83.03l30.44 -3985.02c-670.82,-266.28 -671.75,-169.23 -1434.89,-180.85 -1116.71,-17.04 -1149.24,-114.01 -1149.24,555.34z" class="fil2"/>
   <path d="M34779.22 37463.7c243.2,2368.12 221.2,3630.98 -493.07,5618.49 -384.63,1070.32 -1116.87,2030.73 -1757.71,3027.63 -398.72,620.08 -2067.36,1743.46 -2704.57,2144.51 -639.91,402.67 -1559.27,619.69 -2347.04,862.66 -1231.58,379.75 -4762.33,290.22 -5670.31,-335.13 1332.34,-148.33 2464.54,764.3 5996.15,-576.17 1997.04,-757.96 3588.07,-2256.59 4666.21,-4060.38 725.19,-1213.3 996.97,-2662.9 1255.89,-4058.44 220.36,-1187.43 -666.17,-5023.58 -1495.84,-5484.66l830.37 2008.12c104.64,277.98 104.25,527.3 169.7,812.48 468.59,2043.59 270.23,4573.5 -830.91,6390.07 -211.45,348.77 -485.01,834.86 -751.91,1148.31 -165.13,193.87 -286.73,345.37 -452.48,534.04 -173.11,197.12 -327.55,287.27 -493.14,487.33 -320.03,386.49 -1692.73,1471.6 -2117.09,1688.63 -1865.14,953.98 -4368.41,1322.5 -6408.04,866.92 -922.16,-206.02 -2559.27,-893.41 -2719.21,-882.8 -93.64,6.12 91.7,-131.59 -210.6,66.99 601.11,541.24 1741.29,1101.46 2489.64,1324.13 1886.67,561.54 2921.75,876.46 4928.39,504.76 334.91,-61.96 1342.25,-211.37 1592.12,-303.77 559.82,-206.87 824.71,-431.79 1270.38,-633.87 806.28,-365.58 185.57,51.27 1234.28,-668.18 799.7,-548.6 1519.47,-1005.49 2027.48,-1773.59 1575.85,-2382.75 1665.77,-2390.19 2280.05,-5326.5 121.52,-580.81 112.38,-2005.63 -69.4,-2636.95 -64.75,-224.69 -69.55,-126.79 -112.46,-337.38 -45.08,-221.67 47.79,-234.3 -106.88,-407.25z" class="fil2 str1"/>
  </g>
 </g>
</svg>