<?xml version="1.0" encoding="UTF-8"?>
<!DOCTYPE svg PUBLIC "-//W3C//DTD SVG 1.0//EN" "http://www.w3.org/TR/2001/REC-SVG-20010904/DTD/svg10.dtd">
<!-- Creator: CorelDRAW -->
<?xml-stylesheet href="blk hd and logo.css" type="text/css"?>
<svg xmlns="http://www.w3.org/2000/svg" xml:space="preserve" width="29.9014in" height="8.57665in" version="1.0" style="shape-rendering:geometricPrecision; text-rendering:geometricPrecision; image-rendering:optimizeQuality; fill-rule:evenodd; clip-rule:evenodd"
viewBox="0 0 29.90142 8.57665"
 xmlns:xlink="http://www.w3.org/1999/xlink"
 xmlns:xodm="http://www.corel.com/coreldraw/odm/2003">
 <g id="Layer_x0020_1">
  <metadata id="CorelCorpID_0Corel-Layer"/>
  <g id="_1932474698992">
   <path class="fil0" d="M0.87531 0.29381c0.02722,-0.04264 0.23393,-0.07517 0.30361,-0.08737 0.03069,-0.00537 0.06224,-0.00368 0.09215,-0.00852 0.0288,-0.00465 0.05124,-0.01575 0.07946,-0.02056 0.06566,-0.0112 0.11473,-0.00802 0.1813,-0.01065 0.12678,-0.00501 0.21146,-0.04599 0.35611,-0.02925 0.06607,0.00764 0.07301,0.04569 0.07549,0.11311 0.01044,0.28329 -0.03011,1.5349 0.00529,1.72267 0.06347,0.00747 0.21246,-0.026 0.26698,-0.0434 0.01879,-0.06551 0.00793,-0.38406 0.00803,-0.47888l0.0003 -0.95844c0.00006,-0.32954 -0.02459,-0.33109 0.14654,-0.3262 0.08979,0.00257 0.13517,0.01427 0.14066,0.10111 0.01536,0.24291 -0.02567,1.62513 0.0087,1.65859 0.03248,0.01659 0.24306,0.02446 0.26915,0.00834 0.02434,-0.03051 0.00559,-1.0478 0.0058,-1.23348 0.00009,-0.07497 -0.02337,-0.38401 0.02166,-0.42005 0.00865,-0.00691 -0.00235,-0.00062 0.01074,-0.00751 0.01314,-0.00692 0.01048,-0.00584 0.02692,-0.00724 0.04583,-0.00392 0.07965,0.02865 0.17311,0.04424 0.06921,0.01154 0.15115,0.04355 0.2145,0.06874 0.14554,0.05785 0.43789,0.22132 0.54837,0.31043 0.07211,0.05816 0.38299,0.36723 0.388,0.46374l0.14239 0.26423c0.03647,0.06974 0.12923,0.37151 0.1403,0.46817 0.04072,0.3555 0.00622,0.57806 -0.0863,0.91129 -0.01631,0.05874 -0.15087,0.32404 -0.19708,0.42004 -0.10598,0.22019 -0.13183,0.11997 -0.14834,0.3676 -0.0039,0.05853 -0.00543,0.073 -0.01939,0.09427 -0.02452,-0.18191 -0.03893,-0.32098 -0.10317,-0.48047 -0.02872,-0.07133 -0.05535,-0.13499 -0.09035,-0.20118 -0.06144,-0.11617 -0.15924,-0.23879 -0.2457,-0.33798 -0.04237,-0.04861 -0.26466,-0.20471 -0.33122,-0.25215 -0.11403,-0.08127 -0.29274,-0.12284 -0.42593,-0.16563 -0.03661,-0.01176 -0.0782,-0.01756 -0.11847,-0.02041 -0.05507,-0.0039 -0.08584,-0.01514 -0.13323,-0.0197 -0.13595,-0.01311 -0.39874,0.00977 -0.51713,0.04893 -0.04981,0.01647 -0.06522,0.00437 -0.1108,0.03093 -0.10653,0.06206 -0.09463,0.01492 -0.29928,0.1427 -0.02493,0.01556 -0.06531,0.03904 -0.08474,0.05681 -0.06693,0.06128 -0.06113,0.03303 -0.12352,0.10149 -0.08543,0.09374 -0.25548,0.18713 -0.37363,0.43462l-0.13434 0.2995c-0.01462,0.03028 -0.01867,0.08643 -0.02674,0.12354 -0.03716,0.17094 -0.02775,0.36494 -0.00093,0.54118 0.01695,0.11137 0.09382,0.37195 0.14291,0.44857l0.12169 0.17c0.05938,0.08074 0.19563,0.24721 0.2718,0.31168 0.0524,0.04434 0.11018,0.08353 0.17845,0.12156 0.11682,0.06508 0.26263,0.14594 0.40942,0.17335 0.09533,0.0178 0.14458,0.03831 0.2511,0.04225 0.091,0.00338 0.19854,-0.0003 0.28631,0.01478 -0.2186,0.08152 -0.37229,0.05754 -0.59141,0.03199 -0.07482,-0.00872 -0.12252,-0.02671 -0.18951,-0.03373 -0.03583,0.07469 -0.07317,0.20097 -0.09728,0.28553 -0.02352,0.08243 -0.06578,0.22999 -0.07215,0.31183 -0.01174,0.15057 -0.01657,0.08556 -0.02933,0.16153 -0.00972,0.0578 -0.01248,0.11107 -0.02344,0.16776 -0.0239,0.12367 -0.01503,0.23599 -0.03183,0.36165 -0.03214,0.24035 -0.00411,0.48565 0.01512,0.72587 0.0086,0.10753 0.02778,0.22474 0.05907,0.32191 0.01711,0.05312 0.01084,0.09271 0.03402,0.15712 0.07513,0.20872 0.06827,0.21517 0.18758,0.39589 0.05305,0.08036 0.10644,0.14528 0.17626,0.20716 0.11955,0.10595 0.33377,0.21813 0.55583,0.22055 0.21161,0.0023 0.28324,-0.03178 0.43814,-0.1382 0.02963,-0.02035 0.07191,-0.0728 0.09865,-0.10157 0.05376,-0.05783 0.08721,-0.18767 0.1002,-0.28267 0.01731,-0.12665 -0.01717,-0.24404 -0.01625,-0.37449 0.03939,-0.01514 0.05802,-0.03736 0.09855,-0.06037 0.03737,-0.02121 0.0711,-0.03899 0.10986,-0.05656 0.0325,-0.01472 0.0849,-0.03209 0.11167,-0.04705 0.04265,-0.02386 0.0739,-0.01318 0.12719,-0.03924 0.08316,-0.04067 0.14954,-0.06542 0.1789,-0.1466 0.04361,-0.12057 -0.05601,-0.15441 -0.07404,-0.24007 0.10201,-0.03588 0.25902,0.01189 0.41328,-0.05381 0.19125,-0.08144 0.00128,-0.61239 0.3305,-0.62063 0.09015,-0.00224 0.35974,-0.01039 0.42672,-0.04725 0.1254,-0.06899 0.18716,-0.10033 0.20067,-0.27622 0.02079,-0.27081 -0.15603,-0.81136 -0.04864,-1.30599 0.03288,-0.15142 0.22696,-0.49623 0.30232,-0.76377l0.07278 -0.28512c0.0316,-0.13134 0.04793,-0.27056 0.06603,-0.40894 0.0337,-0.25765 0.01996,-0.63543 -0.03124,-0.8922 -0.07885,-0.39549 -0.07474,-0.32185 -0.24342,-0.7064 -0.10424,-0.23765 -0.04817,-0.1122 -0.17115,-0.29529 -0.19972,-0.29736 -0.17715,-0.2719 -0.42965,-0.52067 -0.12361,-0.12178 -0.10215,-0.11078 -0.25247,-0.22271l-0.19723 -0.15269c-0.01939,-0.01335 -0.05352,-0.03095 -0.07932,-0.04554 -0.04887,-0.02766 -0.101,-0.06254 -0.14888,-0.08477 -0.06115,-0.0284 -0.1047,-0.04954 -0.16161,-0.08015 -0.11546,-0.06207 -0.21834,-0.08663 -0.33854,-0.13628 -0.12413,-0.05126 -0.23403,-0.07478 -0.36959,-0.10504 -0.14496,-0.03237 -0.27411,-0.03822 -0.42191,-0.05273 -0.06908,-0.00678 -0.13115,-0.02672 -0.19967,-0.03127 -0.14981,-0.00997 -0.76228,0.01566 -0.9115,0.0365 -0.06673,0.00932 -0.13952,0.03097 -0.20556,0.03574 -0.29543,0.02134 -0.4923,0.1258 -0.74301,0.20668 -0.10566,0.03407 -0.21651,0.1081 -0.3162,0.15855 -0.01354,0.00685 -0.30133,0.15128 -0.28252,0.17636 0.02691,0.0359 0.34862,-0.14353 0.41731,-0.17474 0.0824,-0.03744 0.39329,-0.14504 0.45973,-0.14918zm2.53006 2.67338c0.10544,0.0586 0.21811,0.54614 0.19011,0.69706 -0.03291,0.17736 -0.06744,0.3616 -0.15961,0.5158 -0.13702,0.22925 -0.33923,0.41971 -0.59304,0.51604 -0.44884,0.17036 -0.59274,0.05438 -0.76207,0.07323 0.1154,0.07948 0.56413,0.09086 0.72065,0.04259 0.10012,-0.03088 0.21697,-0.05846 0.2983,-0.10964 0.08098,-0.05097 0.29306,-0.19374 0.34373,-0.27255 0.08144,-0.1267 0.17451,-0.24876 0.22339,-0.38479 0.09078,-0.25259 0.09357,-0.41309 0.06267,-0.71407 -0.00094,-0.20891 -0.28882,-0.59783 -0.47089,-0.73144 -0.05433,-0.03987 -0.13585,-0.06619 -0.19889,-0.10109 -0.20214,-0.11192 -0.52313,-0.17581 -0.75195,-0.1195 0.053,0.02485 0.11988,0.01582 0.18123,0.02344 0.16831,0.02093 0.40025,0.09881 0.5417,0.19178 0.05102,0.03354 0.24583,0.2121 0.27671,0.25682l0.09796 0.11631zm-1.12034 0.0321c-0.29976,0.06678 -0.55048,0.37646 -0.47156,0.70427 0.12783,0.53087 0.78441,0.64066 1.08059,0.22633 0.15584,-0.218 0.15081,-0.44192 0.01694,-0.67467 -0.04247,-0.07381 -0.09261,-0.10517 -0.14887,-0.15088 -0.11389,-0.09255 -0.28248,-0.14841 -0.4771,-0.10505z"/>
   <path class="fil0" d="M19.62557 2.96895c-0.05027,0.06797 -0.02887,0.54284 -0.02967,0.66559 -0.0015,0.23369 -0.00202,0.46643 0.00065,0.70012 0.0024,0.21108 0.01762,0.27029 0.06728,0.45372 0.00713,0.02635 0.01417,0.03537 0.02327,0.05972 0.00819,0.02189 0.01158,0.04533 0.02096,0.07065 0.05819,0.15707 0.18925,0.2982 0.29816,0.41039 0.12419,0.12791 0.23098,0.22019 0.39642,0.30402 0.13409,0.06794 0.39932,0.12746 0.57296,0.12778 0.06512,0.00011 0.25838,-0.01848 0.32146,-0.03183 0.04953,-0.01047 0.00096,-0.01175 0.13731,-0.0357 0.04568,-0.00802 0.09527,-0.03 0.1264,-0.04867 0.06265,-0.03757 0.12264,-0.0611 0.22463,-0.12551 0.10246,-0.0647 0.13955,-0.07239 0.20752,-0.15096 0.22392,-0.25892 0.27628,-0.31353 0.38502,-0.66493 0.04403,-0.14226 0.05357,-0.32144 0.0253,-0.47093 -0.02546,-0.13471 0.01458,-0.09457 -0.05893,-0.29118 -0.05196,-0.139 -0.15538,-0.35017 -0.24739,-0.45294 -0.05572,-0.06221 0.01211,-0.00366 -0.08836,-0.09468 -0.2875,-0.26046 -0.54306,-0.41142 -0.97444,-0.42706 -0.22948,-0.00833 -0.46941,-0.00017 -0.70013,-0.00078 -0.21365,-0.00056 -0.50378,-0.02017 -0.70841,0.00319zm0.67224 0.69567c-0.02797,0.1142 -0.01438,0.55106 -0.00804,0.69584 0.01156,0.26387 0.05732,0.34789 0.21478,0.50356 0.14723,0.14557 0.28798,0.214 0.50455,0.21124 0.67409,-0.0086 1.0682,-0.92397 0.29303,-1.36719 -0.15913,-0.09098 -0.97773,-0.05891 -1.00431,-0.04345z"/>
   <path class="fil0" d="M9.83855 5.74059c0.0313,-0.13111 0.01174,-1.16652 0.01033,-1.38098 -0.00125,-0.19031 -0.05557,-0.41874 -0.12859,-0.57078 -0.08981,-0.18699 -0.17301,-0.2871 -0.28781,-0.4125 -0.07475,-0.08164 -0.20229,-0.16472 -0.29757,-0.22731 -0.03756,-0.02468 -0.07391,-0.04155 -0.11491,-0.06032 -0.12837,-0.05881 -0.41972,-0.12316 -0.57915,-0.11931l-0.30049 0.04831c-0.25726,0.05891 -0.24837,0.07774 -0.48507,0.21451 -0.06649,0.03843 -0.15065,0.09309 -0.20762,0.14272l-0.16623 0.17514c-0.15719,0.25487 -0.2473,0.4678 -0.2483,0.80122 -0.00059,0.1962 0.04742,0.39733 0.11771,0.58171 0.02136,0.05601 0.16585,0.26314 0.20737,0.31753l0.16759 0.18262c0.03898,0.03927 0.26512,0.17742 0.32248,0.20244 0.04858,0.02118 0.08844,0.01847 0.13566,0.03906 0.05507,0.02402 0.08749,0.01482 0.14379,0.03146 0.20933,0.06186 0.76641,0.03703 1.01328,0.03744 0.11668,0.00019 0.23337,0.00012 0.35004,0.00011 0.1012,0 0.25223,0.00902 0.3475,-0.00308zm-1.62667 -2.05092c-0.03624,0.00333 -0.11191,0.04531 -0.14548,0.0624l-0.11757 0.0905 -0.13962 0.17685c-0.01278,0.02574 -0.01866,0.04657 -0.03304,0.07527 -0.04279,0.08547 -0.07687,0.24335 -0.05651,0.35195 0.03008,0.16047 0.03995,0.19134 0.11169,0.31107 0.05608,0.01093 0.08046,0.09824 0.21375,0.18923 0.05247,0.03582 0.2157,0.10404 0.28819,0.11135 0.07927,0.008 0.67869,0.00204 0.81079,0.00204 0.02451,-0.16684 0.01331,-0.39826 0.01258,-0.5757 -0.00077,-0.18848 -0.02396,-0.36369 -0.11206,-0.48698 -0.0953,-0.13337 -0.16454,-0.20448 -0.32441,-0.27556 -0.16198,-0.07203 -0.32636,-0.07141 -0.50831,-0.03243z"/>
   <path class="fil0" d="M13.07987 3.69222l-0.05487 0.1077 -0.0508 0.20093c-0.03443,0.08248 -0.05077,0.28241 -0.049,0.37543 0.00776,0.40622 0.12911,0.66276 0.39979,0.95038l0.27283 0.22696c0.01566,0.01031 0.0368,0.01771 0.05707,0.02654 0.02635,0.01149 0.03191,0.01993 0.05864,0.03238 0.11434,0.05322 0.26113,0.09615 0.3922,0.10753 0.06027,0.00522 0.10887,0.00589 0.16921,0.00509 0.21459,-0.00284 1.17852,0.01529 1.34826,-0.00066 0.08808,-0.00828 0.05839,-0.03063 0.05859,-0.27309 0.00009,-0.11396 0.00089,-0.22775 0.00221,-0.3417 0.00264,-0.22666 0.00543,-0.44826 -0.00029,-0.67508 -0.00255,-0.10077 0.00528,-0.13678 -0.01113,-0.23976 -0.00447,-0.02802 -0.01462,-0.03864 -0.02046,-0.06274 -0.01443,-0.05956 0.00842,-0.0807 -0.02302,-0.1432 -0.03129,-0.06223 -0.03827,-0.27769 -0.30038,-0.54964 -0.12515,-0.12985 -0.21461,-0.19785 -0.3763,-0.29855 -0.04559,-0.02839 -0.18978,-0.06352 -0.24918,-0.08456 -0.11321,-0.0401 -0.15141,-0.05163 -0.28662,-0.05491 -0.11162,-0.00271 -0.2171,0.00618 -0.32516,0.00912 -0.06034,0.00163 -0.21824,0.04685 -0.26991,0.07061 -0.16818,0.07732 -0.28941,0.13626 -0.42157,0.25344 -0.06334,0.05617 -0.20442,0.19374 -0.24196,0.25848 -0.02532,0.04368 -0.02522,0.05544 -0.06289,0.08712 -0.01444,0.01215 -0.00074,0.00174 -0.01528,0.01217zm1.9474 1.37858c0.01332,-0.10025 0.00733,-0.2456 0.00789,-0.3528 0.00061,-0.11981 0.00121,-0.23895 -0.00419,-0.3587 -0.00848,-0.1882 -0.07448,-0.38266 -0.20957,-0.50424 -0.22133,-0.19919 -0.52963,-0.26604 -0.81005,-0.14248 -0.05035,0.02219 -0.19758,0.11833 -0.22072,0.14588 -0.07276,0.08663 -0.18009,0.23022 -0.19204,0.34252 -0.00586,0.05499 -0.01241,0.11954 -0.01197,0.17531 0.00153,0.19148 0.03725,0.27762 0.13244,0.40579 0.08116,0.10927 0.1583,0.18731 0.29457,0.24721 0.09268,0.04075 0.19111,0.04887 0.30265,0.05225 0.13376,0.00407 0.61894,0.01372 0.711,-0.01074z"/>
   <path class="fil0" d="M17.93678 2.97413c-0.37054,0.05698 -0.48061,0.09371 -0.75406,0.30124 -0.18105,0.1374 -0.21766,0.2133 -0.33036,0.37787 -0.17201,0.25117 -0.21841,0.55016 -0.19784,0.84976 0.01648,0.23983 0.07852,0.39779 0.18635,0.59961l0.19536 0.24607c0.03306,0.0318 0.0624,0.05657 0.09663,0.08691 0.14133,0.12524 0.07053,0.05947 0.19996,0.15011 0.21883,0.15328 0.58954,0.20715 0.86791,0.18984 0.25274,-0.0157 0.62241,-0.15471 0.80076,-0.33166 0.01749,-0.01734 0.0269,-0.03161 0.04394,-0.0476 0.04003,-0.03758 0.04887,-0.05543 0.08846,-0.09469 0.07334,-0.0727 0.07351,-0.09193 0.11622,-0.14244 0.05871,-0.06942 0.05703,-0.07111 0.10489,-0.16178 0.01614,-0.03061 0.02951,-0.09241 0.04483,-0.13001 0.07414,-0.1819 0.08774,-0.42033 0.07833,-0.63286 -0.00948,-0.21419 -0.08986,-0.36753 -0.16362,-0.53895 -0.05727,-0.13309 -0.2172,-0.28779 -0.32827,-0.38012 -0.12578,-0.10459 -0.02773,-0.06057 -0.20634,-0.14385 -0.08221,-0.03834 -0.14771,-0.07643 -0.23688,-0.113 -0.09502,-0.03897 -0.17354,-0.06064 -0.27746,-0.07159 -0.11794,-0.01242 -0.20914,-0.03124 -0.32881,-0.01285zm-0.60327 1.5617c0.01167,0.04145 0.03036,0.0923 0.04899,0.13336 0.01869,0.04123 0.04644,0.07786 0.0633,0.11513 0.09606,0.0581 0.16014,0.20106 0.40076,0.2792 0.19425,0.06307 0.39404,0.02913 0.549,-0.05071 0.03336,-0.0172 0.06882,-0.04877 0.098,-0.06862 0.21395,-0.14557 0.3315,-0.44946 0.26135,-0.70564 -0.01393,-0.05089 -0.00923,-0.0934 -0.0327,-0.14253 -0.09394,-0.19667 -0.15539,-0.24606 -0.32464,-0.35007 -0.131,-0.0805 -0.38611,-0.11247 -0.55812,-0.05535 -0.06474,0.02149 -0.16874,0.0781 -0.21831,0.11472 -0.06632,0.049 -0.11569,0.10196 -0.16415,0.17738 -0.12238,0.19046 -0.13899,0.27277 -0.12348,0.55314z"/>
   <path class="fil0" d="M29.87729 5.76087c0.02998,-0.09566 0.01694,-0.2253 0.01695,-0.33446 0,-0.06598 0.01446,-0.3018 -0.0082,-0.34142 -0.02356,-0.02891 -0.24111,-0.01844 -0.27596,-0.01859l-0.88344 0.00245c-0.19975,0.00106 -0.36396,0.01794 -0.53898,-0.05362 -0.30517,-0.12477 -0.46548,-0.419 -0.4211,-0.74931 0.02985,-0.22228 0.07396,-0.23003 0.1934,-0.39815 0.07237,-0.10186 0.26285,-0.16892 0.39462,-0.19662 0.2847,-0.05984 0.64512,0.09773 0.77255,0.37958 0.05381,0.11898 0.02933,0.11703 -0.03905,0.18682l-0.67037 0.6647c-0.04233,0.06444 0.03157,0.05722 0.07226,0.05927 0.19204,0.00969 0.3938,0.00458 0.58671,0.00377 0.25842,-0.00107 0.18165,0.03787 0.41805,-0.17117l0.22081 -0.22055c0.03765,-0.04272 0.04506,-0.06122 0.10255,-0.11413 0.04267,-0.03927 0.07791,-0.04298 0.06653,-0.15752 -0.00828,-0.08343 -0.02698,-0.17457 -0.04261,-0.25772l-0.0682 -0.22339c-0.0402,-0.10005 -0.15478,-0.27902 -0.22152,-0.36176 -0.0246,-0.0305 -0.25584,-0.2532 -0.30474,-0.28708 -0.0472,-0.03269 -0.14029,-0.07342 -0.20163,-0.09838 -0.20355,-0.08283 -0.25619,-0.09741 -0.47838,-0.11238 -0.1055,-0.00711 -0.17229,-0.00326 -0.27106,0.01853 -0.11308,0.02494 -0.05556,-0.0207 -0.25043,0.04917 -0.06616,0.02372 -0.13683,0.06217 -0.20291,0.08881 -0.06675,0.02691 -0.28242,0.18196 -0.34621,0.24553 -0.10769,0.10731 -0.18433,0.1955 -0.25799,0.33387 -0.03307,0.06213 -0.08197,0.12957 -0.1006,0.19958 -0.04961,0.18632 -0.069,0.31522 -0.06299,0.52124 0.00314,0.10715 0.0185,0.16532 0.03084,0.26411 0.01256,0.10054 0.02611,0.09698 0.07429,0.22364 0.05757,0.15131 0.14581,0.25215 0.22199,0.36953 0.07269,0.11202 0.2001,0.18685 0.32265,0.26907 0.1567,0.10512 0.20254,0.1217 0.422,0.17024 0.29512,0.06526 0.23807,0.04772 0.54617,0.04775 0.38945,0.00002 0.79671,0.01094 1.18399,-0.00143z"/>
   <path class="fil0" d="M25.31791 5.76205c0.06509,-0.04047 0.03556,-0.34723 0.03559,-0.43564l0.00046 -0.96678c-0.00071,-0.17701 -0.0128,-0.2636 -0.07512,-0.41092 -0.04427,-0.10463 -0.09695,-0.24448 -0.14898,-0.33446 -0.03385,-0.05856 -0.07215,-0.08373 -0.11133,-0.13027 -0.05544,-0.06586 -0.17169,-0.19228 -0.2414,-0.24206l-0.31767 -0.16576c-0.19054,-0.07171 -0.40766,-0.12189 -0.61933,-0.10396 -0.05393,0.00458 -0.16856,0.01494 -0.21573,0.02643 -0.0332,0.00809 -0.0522,0.02071 -0.08901,0.02815 -0.15422,0.03118 -0.2846,0.09882 -0.4151,0.19364 -0.11165,0.08112 -0.21548,0.22261 -0.30111,0.29909 -0.06578,0.05875 -0.087,0.12421 -0.14315,0.22353 -0.21441,0.3793 -0.15544,0.84644 -0.1554,1.3 0.00002,0.16113 0.00009,0.32226 0.0001,0.48339 0.00002,0.26498 -0.0277,0.24243 0.23853,0.24189 0.08043,-0.00017 0.16133,-0.00096 0.2417,0.00009 0.06617,0.00087 0.18209,0.01783 0.21184,-0.03013 0.02793,-0.04506 0.01207,-0.3903 0.01156,-0.47021 -0.00202,-0.31553 -0.01136,-0.64919 0.00593,-0.96307 0.0192,-0.34888 0.36141,-0.70908 0.7963,-0.64711 0.09041,0.01289 0.1191,0.0134 0.19302,0.05017 0.17698,0.08804 0.13588,0.05561 0.27335,0.20995 0.02275,0.02556 0.03633,0.03363 0.05506,0.06137 0.01781,0.0264 0.02841,0.05282 0.04287,0.08191 0.06949,0.13977 0.07343,0.24295 0.06909,0.41503 -0.00804,0.31894 -0.00111,0.64687 -0.0011,0.96678 0,0.35486 -0.02728,0.31979 0.16732,0.31928 0.16389,-0.00044 0.32783,-0.00031 0.49172,-0.00031z"/>
   <path class="fil0" d="M11.9888 4.77143c-0.01077,0.08602 -0.16728,0.19306 -0.24717,0.23968 -0.05565,0.0325 -0.09971,0.05835 -0.16913,0.07252 -0.03756,0.00766 -0.07271,0.011 -0.107,0.01872 -0.08879,0.02001 -0.24989,0.00139 -0.31653,-0.02394 -0.01959,-0.00744 -0.02198,-0.01118 -0.0475,-0.0198 -0.07966,-0.02691 -0.08989,-0.03039 -0.16136,-0.08037 -0.07189,-0.05027 -0.14702,-0.14178 -0.19776,-0.21212 -0.06361,-0.08818 -0.1315,-0.23414 -0.1374,-0.34787 -0.02227,-0.42866 0.03836,-0.9633 -0.00303,-1.41547 -0.03309,0.02046 -0.23796,0.00524 -0.29412,0.00436 -0.1018,-0.00159 -0.19681,0.00474 -0.29639,0.00358 -0.02394,0.11392 -0.00886,0.41404 -0.00843,0.54881 0.00058,0.18303 -0.00429,0.36773 -0.00263,0.55006 0.00087,0.09455 0.00547,0.18874 0.00222,0.28359 -0.00283,0.08232 0.04135,0.31669 0.06989,0.4119 0.01285,0.04292 0.0082,0.01694 0.02214,0.04434l0.06921 0.2069c0.01067,0.06733 0.11038,0.17665 0.15223,0.21995 0.03325,0.03442 0.05283,0.06777 0.09042,0.10131l0.10341 0.08833c0.02128,0.01465 0.03687,0.02108 0.05612,0.03569 0.01826,0.01387 0.03017,0.02593 0.05275,0.03879l0.25901 0.12463c0.06278,0.02957 0.08119,0.02527 0.14417,0.04707 0.15763,0.05457 0.51151,0.0525 0.68334,0.00373 0.35849,-0.10174 0.48374,-0.2193 0.71244,-0.42974 0.07366,-0.06778 0.10074,-0.12706 0.16266,-0.22076 0.05567,-0.08426 0.08969,-0.14689 0.12199,-0.26142 0.01531,-0.05434 0.06877,-0.26119 0.07076,-0.3106 0.01176,-0.29035 0.01141,-1.24209 -0.00851,-1.51768 -0.07425,-0.01231 -0.59524,-0.01749 -0.6406,0.00004 -0.03568,0.08822 -0.01114,0.79736 -0.00948,0.95023 0.00261,0.24079 0.02607,0.54445 -0.08258,0.76642 -0.01231,0.02515 -0.03743,0.06179 -0.04316,0.07911z"/>
   <path class="fil0" d="M26.29013 5.72811c0.05874,0.01625 0.56164,0.01363 0.65151,0.00639l0.00069 -3.51682c-0.00681,-0.04528 -0.0338,-0.03946 -0.08217,-0.03873l-0.49255 -0.0001c-0.10147,-0.00149 -0.08961,0.00983 -0.08868,0.14721l0.00022 1.46684c-0.00001,0.32504 0.0001,0.65007 0.0001,0.97511 0,0.1517 -0.01541,0.88275 0.01088,0.9601z"/>
   <path class="fil0" d="M15.8438 5.76611c0.10311,0.0094 0.24116,0.00206 0.34803,0.00205 0.1089,-0.00001 0.24504,0.01676 0.3333,-0.02303 0.01171,-0.57054 0.00152,-1.14702 0.00158,-1.71887 0.00003,-0.28892 0.00013,-0.57784 0.00027,-0.86676 0.00012,-0.2375 -0.01239,-0.19424 -0.24348,-0.19383 -0.15036,0.00026 -0.29352,-0.00311 -0.44459,0.00191 -0.03636,0.57925 -0.01579,1.48012 -0.01331,2.10881 0.00085,0.21613 -0.01891,0.48623 0.01819,0.68974z"/>
   <path class="fil0" d="M25.47478 5.73793c0.05103,0.02079 0.59624,0.01726 0.63058,0.00837 0.05987,-0.01548 0.04466,-0.1032 0.0438,-0.16986 -0.00728,-0.56269 -0.00028,-1.16596 -0.00028,-1.73354 0,-0.15544 0.0177,-0.76196 -0.01255,-0.86074 -0.08116,-0.0363 -0.30439,-0.018 -0.41004,-0.01678 -0.2814,0.00324 -0.26141,-0.03424 -0.26132,0.17744l-0.00015 2.16693c0,0.10254 -0.01112,0.34778 0.00995,0.42819z"/>
   <path class="fil0" d="M17.93704 3.78302c-0.42014,0.09802 -0.58724,0.55439 -0.463,0.76975 0.04433,0.07684 0.04053,0.1474 0.13518,0.23967 0.03097,0.03019 0.04127,0.04929 0.08267,0.07572 0.13813,0.08817 0.28742,0.14527 0.49475,0.11033 0.30903,-0.05208 0.55058,-0.41695 0.47454,-0.71291 -0.04774,-0.1858 -0.11952,-0.29194 -0.23324,-0.37519 -0.05839,-0.04275 -0.1175,-0.08701 -0.20906,-0.0996 -0.08935,-0.01228 -0.19331,-0.02842 -0.28184,-0.00777zm0.09848 0.40872c-0.07461,0.01931 -0.09422,0.00923 -0.13439,0.06034 -0.0288,0.03667 -0.05285,0.09081 -0.0392,0.15403 0.03435,0.15899 0.26569,0.2281 0.3565,0.08815 0.02716,-0.04185 0.05616,-0.08397 0.03883,-0.141 -0.02713,-0.08932 -0.10437,-0.19191 -0.22174,-0.16152z"/>
   <path class="fil0" d="M19.60068 6.55169c0.20007,0.00755 0.48225,0.01875 0.6749,-0.00629 0.03245,-0.15545 0.01031,-0.38409 0.01291,-0.55225 0.00121,-0.07788 0.0088,-0.19875 -0.00832,-0.27094 -0.01563,-0.06587 -0.04831,-0.05221 -0.15902,-0.13294 -0.1412,-0.10297 -0.19979,-0.14444 -0.29689,-0.26984 -0.03974,-0.05133 -0.08598,-0.11089 -0.11721,-0.16638 -0.0497,-0.08833 -0.03884,-0.11225 -0.11117,-0.17304 -0.02848,0.10223 -0.01014,0.64033 -0.0102,0.78811 -0.00008,0.1853 -0.0213,0.63557 0.015,0.78357z"/>
   <path class="fil0" d="M15.71133 3.7294c0.01259,-0.36899 0.00769,-0.74227 0.00579,-1.11165 -0.00046,-0.09168 -0.00103,-0.18335 -0.0015,-0.27502 -0.00072,-0.14371 0.03383,-0.17259 -0.1155,-0.17119 -0.08394,0.00079 -0.51539,-0.02207 -0.55011,0.02166 -0.0231,0.02911 -0.01543,0.79311 -0.00915,0.8104 0.01285,0.03536 0.11634,0.10539 0.14935,0.1324 0.13844,0.11331 0.32309,0.27675 0.41159,0.43014 0.02397,0.04155 0.07502,0.15051 0.10953,0.16327z"/>
   <path class="fil0" d="M22.53474 2.19206c-0.00385,0.4263 -0.01259,0.90761 -0.00249,1.33413 0.00104,0.04374 -0.00467,0.14859 0.01867,0.1757 0.04116,-0.03185 0.17978,-0.25628 0.22263,-0.3199 0.02801,-0.04157 0.02306,-0.03811 0.06707,-0.06605l0.21303 -0.19568c0.05378,-0.03598 0.14128,-0.0505 0.15772,-0.10807 0.01388,-0.0486 0.00426,-0.20877 0.00416,-0.26942 -0.00028,-0.18052 -0.00018,-0.36106 -0.00048,-0.54159 -0.07461,-0.04517 -0.57865,-0.04072 -0.68031,-0.00912z"/>
   <path class="fil0" d="M6.33616 6.61431c0.0348,0.01065 0.07009,0.01342 0.09389,-0.00758 0.02674,-0.03147 0.01231,-3.41587 0.01232,-4.05565 0,-0.12117 0.02559,-0.21291 -0.06716,-0.20671 -0.05597,0.00374 -0.05464,0.02687 -0.0553,0.08135 -0.00051,0.04171 -0.00148,0.08343 -0.00186,0.12534 -0.01083,1.1677 -0.00154,2.36356 0.00056,3.53377 0.00016,0.09093 -0.01589,0.48099 0.01755,0.52948z"/>
   <path class="fil0" d="M15.84523 2.84756c0.09633,0.01078 0.56939,0.01452 0.65789,0.0045 0.02153,-0.06253 0.01068,-0.53965 0.0105,-0.64973 -0.06974,-0.04603 -0.2252,-0.0281 -0.33844,-0.02832 -0.08339,-0.00014 -0.16679,-0.00016 -0.25018,-0.00067 -0.11041,-0.00068 -0.09357,0.00424 -0.0949,0.16938 -0.00094,0.11806 -0.01372,0.40624 0.01514,0.50484z"/>
   <path class="fil0" d="M25.49369 2.84995c0.05508,0.01088 0.59068,0.01031 0.6388,-0.00231 0.03085,-0.05122 0.02074,-0.53957 0.0148,-0.63826 -0.05799,-0.05006 -0.22578,-0.02924 -0.31265,-0.02911 -0.05555,0.00008 -0.31696,-0.00906 -0.34412,0.00977 -0.04597,0.03187 -0.02554,0.59903 0.00317,0.65992z"/>
   <path class="fil0" d="M0.87531 0.29381c0.27726,-0.05632 0.46699,-0.10051 0.76146,-0.11518 0.04698,-0.00234 0.09726,-0.00267 0.14506,-0.00333 0.03555,-0.0005 0.10499,-0.0023 0.13673,0.01718 0.0507,0.50394 -0.02819,1.29155 0.01048,1.81134 0.05088,0.01711 0.16529,-0.01906 0.22555,-0.02947 0.12523,-0.02165 0.13002,-0.01697 0.12998,-0.14834 -0.00007,-0.20825 -0.01727,-1.53907 0.004,-1.62499 0.04441,-0.02317 0.14086,0.00772 0.19014,0.02769 0.03076,0.07759 0.01267,0.69363 0.01276,0.83054 0.0002,0.28952 0.0003,0.57904 0.0003,0.86857 0.06822,0.03731 0.07998,0.02195 0.1648,0.03187 0.19376,0.02266 0.20746,0.13946 0.20202,-0.37537 -0.00403,-0.38154 -0.02025,-0.92606 0.00387,-1.27852 0.07114,-0.01783 0.33946,0.08874 0.41579,0.11554 0.13498,0.0474 0.26037,0.11326 0.36647,0.18345 0.05421,0.03586 0.11052,0.07894 0.15778,0.11737 0.0522,0.04246 0.10197,0.08578 0.14337,0.13164 0.08247,0.09134 0.11216,0.11478 0.18852,0.21974 0.02949,0.04054 0.03331,0.04661 0.06381,0.07966 -0.00502,-0.0965 -0.31589,-0.40558 -0.38801,-0.46373 -0.11049,-0.08911 -0.40283,-0.25258 -0.54837,-0.31043 -0.06335,-0.02519 -0.14529,-0.0572 -0.2145,-0.06874 -0.09346,-0.01558 -0.12728,-0.04816 -0.17311,-0.04424 -0.01644,0.00141 -0.01378,0.00032 -0.02692,0.00724 -0.01309,0.00689 -0.00209,0.0006 -0.01074,0.00751 -0.04502,0.03604 -0.02157,0.34508 -0.02166,0.42005 -0.00022,0.18568 0.01854,1.20296 -0.0058,1.23348 -0.02609,0.01613 -0.23667,0.00825 -0.26915,-0.00833 -0.03437,-0.03346 0.00666,-1.41568 -0.0087,-1.65859 -0.00548,-0.08683 -0.05086,-0.09854 -0.14065,-0.10111 -0.17113,-0.00489 -0.14648,-0.00333 -0.14654,0.3262l-0.0003 0.95844c-0.00011,0.09483 0.01076,0.41338 -0.00803,0.47889 -0.05452,0.01741 -0.20351,0.05087 -0.26698,0.0434 -0.0354,-0.18777 0.00515,-1.43938 -0.00529,-1.72267 -0.00248,-0.06741 -0.00942,-0.10546 -0.07549,-0.1131 -0.14465,-0.01674 -0.22933,0.02424 -0.3561,0.02926 -0.06657,0.00263 -0.11565,-0.00055 -0.1813,0.01065 -0.02822,0.00481 -0.05067,0.01591 -0.07947,0.02056 -0.0299,0.00483 -0.06145,0.00315 -0.09215,0.00852 -0.06968,0.0122 -0.27639,0.04473 -0.30361,0.08737z"/>
   <path class="fil0" d="M3.37972 2.14876c0.006,-0.13717 0.01364,-0.95711 -0.01129,-1.02522 -0.06821,-0.01933 -0.23105,-0.00972 -0.31468,-0.00926 -0.00972,0.19559 -0.01167,0.63194 -0.00296,0.84531 0.00372,0.09141 -0.00904,0.07673 0.07312,0.09941 0.04583,0.01265 0.09039,0.02264 0.12851,0.04643 0.03954,0.02468 0.06709,0.04524 0.12731,0.04334z"/>
   <path class="fil0" d="M3.5628 1.60689c-0.02699,0.12937 -0.01404,0.55567 -0.00111,0.70624l0.08386 0.06599c0.08007,0.06605 0.1727,0.18302 0.25276,0.21369 0.0287,-0.12359 0.01537,-0.74031 0.01059,-0.9682 -0.06376,-0.05051 -0.34215,-0.02023 -0.34609,-0.01771z"/>
   <path class="fil0" d="M3.87218 2.53677c0.00023,-0.13567 0.01987,-0.84834 -0.01692,-0.90833 -0.05307,-0.00662 -0.12494,0.00059 -0.18179,-0.00001 -0.08501,-0.00089 -0.09846,-0.00707 -0.09703,0.08045l0.00229 0.55404c0.00793,0.04788 0.06039,0.07643 0.09037,0.10127 0.01918,0.01588 0.02683,0.02894 0.04633,0.04494l0.09939 0.08438c0.02283,0.0195 0.02758,0.03591 0.05736,0.04326z"/>
   <path class="fil0" d="M1.35238 1.64264l0.00068 0.5334c0.00003,0.12474 0.00089,0.12738 0.22497,-0.02056 0.06309,-0.04166 0.04204,-0.0222 0.08211,-0.04341 0.01802,-0.00955 0.0085,-0.00414 0.0168,-0.01056l0.00387 -0.50646c-0.08526,-0.03384 -0.08537,-0.02151 -0.18236,-0.02299 -0.14193,-0.00217 -0.14606,-0.01449 -0.14606,0.07058z"/>
   <path class="fil0 str0" d="M3.72949 3.33087c0.03091,0.30097 0.02811,0.46147 -0.06267,0.71407 -0.04888,0.13603 -0.14194,0.25809 -0.22339,0.38479 -0.05068,0.07881 -0.26275,0.22158 -0.34373,0.27255 -0.08133,0.05118 -0.19817,0.07876 -0.29829,0.10964 -0.15653,0.04826 -0.60526,0.03689 -0.72066,-0.04259 0.16933,-0.01885 0.31322,0.09714 0.76207,-0.07323 0.25381,-0.09633 0.45602,-0.2868 0.59304,-0.51604 0.09217,-0.1542 0.12671,-0.33844 0.15961,-0.5158 0.028,-0.15091 -0.08467,-0.63846 -0.19011,-0.69706l0.10554 0.25522c0.0133,0.03533 0.01325,0.06702 0.02157,0.10326 0.05956,0.25972 0.03434,0.58126 -0.1056,0.81213 -0.02687,0.04433 -0.06164,0.10611 -0.09556,0.14594 -0.02099,0.02464 -0.03644,0.04389 -0.05751,0.06787 -0.022,0.02505 -0.04163,0.03651 -0.06267,0.06194 -0.04067,0.04912 -0.21513,0.18703 -0.26907,0.21461 -0.23705,0.12125 -0.55519,0.16808 -0.81442,0.11018 -0.1172,-0.02619 -0.32526,-0.11355 -0.34559,-0.1122 -0.0119,0.00078 0.01165,-0.01672 -0.02677,0.00852 0.0764,0.06879 0.22131,0.13998 0.31642,0.16829 0.23978,0.07137 0.37133,0.11139 0.62636,0.06415 0.04256,-0.00787 0.17059,-0.02686 0.20235,-0.03861 0.07115,-0.02629 0.10481,-0.05488 0.16146,-0.08056 0.10247,-0.04646 0.02358,0.00652 0.15687,-0.08492 0.10164,-0.06972 0.19311,-0.12779 0.25768,-0.22541 0.20028,-0.30283 0.2117,-0.30378 0.28978,-0.67696 0.01544,-0.07382 0.01428,-0.2549 -0.00882,-0.33514 -0.00823,-0.02856 -0.00884,-0.01611 -0.01429,-0.04288 -0.00573,-0.02817 0.00607,-0.02978 -0.01359,-0.05176z"/>
   <path class="fil0" d="M12.29773 5.57116l-0.00389 0.00346c-0.02189,0.07454 -0.15854,0.0853 -0.16753,0.15137l0.63044 -0.001 -0.00034 -0.64408 -0.20241 0.26647c-0.05761,0.0674 -0.15875,0.2026 -0.25628,0.22379z"/>
   <path class="fil0" d="M16.8119 2.96644c-0.07583,0.01854 -0.08427,0.02752 -0.12298,0.08182 -0.02819,0.03951 -0.0541,0.08285 -0.044,0.15063 0.01434,0.09619 0.11437,0.19087 0.23441,0.15617 0.08377,-0.02423 0.18613,-0.11802 0.15529,-0.22992 -0.01985,-0.07206 -0.12577,-0.18239 -0.22271,-0.1587z"/>
   <path class="fil0" d="M19.24108 2.98093c-0.06806,0.02127 -0.08533,0.03172 -0.11641,0.0777 -0.14155,0.20924 0.1735,0.41607 0.319,0.21913 0.1015,-0.13737 -0.02607,-0.352 -0.20259,-0.29683z"/>
   <path class="fil0" d="M19.25388 5.39969c-0.26847,0.06829 -0.18378,0.40945 0.06842,0.37421 0.12039,-0.01682 0.16806,-0.11343 0.15083,-0.22794 -0.00911,-0.06059 -0.08867,-0.17948 -0.21925,-0.14627z"/>
   <path class="fil0" d="M16.77976 5.4093c-0.24285,0.08185 -0.13678,0.43173 0.11597,0.35399 0.0688,-0.02117 0.14785,-0.13208 0.10816,-0.23217 -0.02765,-0.06973 -0.11847,-0.15744 -0.22413,-0.12182z"/>
  </g>
 </g>
</svg>
