<?xml version="1.0" encoding="UTF-8"?>
<!DOCTYPE svg PUBLIC "-//W3C//DTD SVG 1.1//EN" "http://www.w3.org/Graphics/SVG/1.1/DTD/svg11.dtd">
<!-- Creator: CorelDRAW -->
<svg xmlns="http://www.w3.org/2000/svg" xml:space="preserve" width="210mm" height="297mm" version="1.1" style="shape-rendering:geometricPrecision; text-rendering:geometricPrecision; image-rendering:optimizeQuality; fill-rule:evenodd; clip-rule:evenodd"
viewBox="0 0 21000 29700"
 xmlns:xlink="http://www.w3.org/1999/xlink"
 xmlns:xodm="http://www.corel.com/coreldraw/odm/2003">
 <defs>
  <style type="text/css">
   <![CDATA[
    .str0 {stroke:#FEFEFE;stroke-width:7.62;stroke-miterlimit:22.9256}
    .fil0 {fill:#FEFEFE}
   ]]>
  </style>
 </defs>
 <g id="Layer_x0020_1">
  <metadata id="CorelCorpID_0Corel-Layer"/>
  <g id="_2171884435296">
   <path class="fil0" d="M-25251.98 4700.22c69.13,-108.31 594.17,-190.92 771.16,-221.92 77.96,-13.63 158.1,-9.36 234.06,-21.63 73.15,-11.83 130.16,-40.01 201.84,-52.23 166.77,-28.46 291.41,-20.38 460.5,-27.06 322.02,-12.72 537.1,-116.81 904.51,-74.3 167.82,19.4 185.45,116.06 191.75,287.28 26.51,719.56 -76.49,3898.65 13.43,4375.59 161.22,18.98 539.66,-66.04 678.13,-110.24 47.73,-166.39 20.13,-975.51 20.4,-1216.37l0.75 -2434.43c0.15,-837.03 -62.45,-840.97 372.22,-828.55 228.07,6.53 343.33,36.25 357.27,256.81 39.02,616.99 -65.21,4127.82 22.09,4212.81 82.49,42.14 617.38,62.14 683.63,21.18 61.82,-77.5 14.19,-2661.42 14.73,-3133.04 0.23,-190.43 -59.35,-975.39 55.01,-1066.93 21.98,-17.55 -5.97,-1.57 27.28,-19.07 33.37,-17.58 26.63,-14.83 68.38,-18.4 116.41,-9.95 202.3,72.78 439.7,112.36 175.8,29.3 383.93,110.61 544.84,174.6 369.67,146.93 1112.23,562.16 1392.87,788.48 183.17,147.72 972.79,932.76 985.53,1177.9l361.67 671.14c92.64,177.15 328.25,943.64 356.35,1189.17 103.44,902.96 15.79,1468.28 -219.21,2314.67 -41.42,149.22 -383.21,823.08 -500.58,1066.91 -269.18,559.28 -334.86,304.73 -376.79,933.7 -9.9,148.67 -13.78,185.42 -49.24,239.43 -62.27,-462.05 -98.88,-815.29 -262.05,-1220.39 -72.96,-181.18 -140.6,-342.87 -229.48,-510.99 -156.07,-295.08 -404.47,-606.52 -624.07,-858.47 -107.61,-123.47 -672.23,-519.96 -841.3,-640.45 -289.63,-206.43 -743.56,-312.02 -1081.85,-420.7 -92.99,-29.88 -198.62,-44.61 -300.91,-51.83 -139.87,-9.91 -218.03,-38.46 -338.41,-50.06 -345.32,-33.28 -1012.8,24.83 -1313.51,124.29 -126.51,41.83 -165.65,11.1 -281.43,78.56 -270.59,157.62 -240.36,37.9 -760.17,362.47 -63.31,39.53 -165.89,99.16 -215.25,144.31 -170.01,155.64 -155.27,83.89 -313.73,257.78 -217,238.11 -648.93,475.31 -949.01,1103.93l-341.22 760.72c-37.13,76.9 -47.41,219.53 -67.91,313.78 -94.39,434.18 -70.48,926.96 -2.37,1374.59 43.05,282.88 238.3,944.76 362.99,1139.38l309.08 431.8c150.83,205.1 496.92,627.93 690.39,791.67 133.09,112.62 279.86,212.15 453.27,308.76 296.72,165.3 667.09,370.67 1039.92,440.3 242.14,45.21 367.23,97.29 637.8,107.32 231.13,8.58 504.29,-0.75 727.24,37.52 -555.24,207.08 -945.61,146.15 -1502.17,81.27 -190.05,-22.16 -311.21,-67.84 -481.36,-85.67 -91.01,189.71 -185.85,510.47 -247.1,725.24 -59.73,209.37 -167.08,584.17 -183.27,792.04 -29.81,382.45 -42.08,217.33 -74.51,410.28 -24.68,146.82 -31.7,282.11 -59.54,426.1 -60.71,314.11 -38.18,599.42 -80.85,918.58 -81.64,610.5 -10.44,1233.54 38.4,1843.71 21.85,273.14 70.55,570.85 150.04,817.65 43.46,134.92 27.53,235.48 86.41,399.08 190.82,530.13 173.4,546.54 476.45,1005.57 134.74,204.11 270.36,369.01 447.71,526.18 303.66,269.11 847.77,554.06 1411.81,560.19 537.49,5.83 719.44,-80.71 1112.89,-351.04 75.26,-51.71 182.64,-184.92 250.58,-257.98 136.56,-146.89 221.52,-476.69 254.5,-717.98 43.98,-321.69 -43.6,-619.88 -41.28,-951.21 100.04,-38.47 147.37,-94.89 250.32,-153.35 94.92,-53.88 180.6,-99.03 279.04,-143.67 82.56,-37.4 215.65,-81.51 283.64,-119.51 108.33,-60.61 187.71,-33.48 323.06,-99.67 211.23,-103.3 379.82,-166.16 454.4,-372.36 110.78,-306.24 -142.26,-392.2 -188.07,-609.77 259.1,-91.14 657.9,30.2 1049.72,-136.67 485.78,-206.87 3.26,-1555.49 839.47,-1576.39 228.99,-5.69 913.74,-26.4 1083.88,-120.01 318.51,-175.24 475.38,-254.83 509.69,-701.61 52.8,-687.85 -396.32,-2060.87 -123.54,-3317.21 83.51,-384.6 576.47,-1260.43 767.89,-1939.97l184.87 -724.22c80.26,-333.59 121.74,-687.23 167.72,-1038.72 85.61,-654.43 50.71,-1613.99 -79.34,-2266.19 -200.29,-1004.55 -189.84,-817.5 -618.29,-1794.26 -264.78,-603.62 -122.36,-284.98 -434.71,-750.03 -507.28,-755.29 -449.97,-690.64 -1091.3,-1322.51 -313.96,-309.31 -259.47,-281.38 -641.27,-565.69l-500.96 -387.83c-49.25,-33.9 -135.94,-78.61 -201.47,-115.68 -124.14,-70.26 -256.54,-158.85 -378.15,-215.33 -155.32,-72.14 -265.93,-125.83 -410.5,-203.57 -293.26,-157.67 -554.58,-220.06 -859.9,-346.14 -315.29,-130.19 -594.44,-189.95 -938.76,-266.81 -368.19,-82.21 -696.23,-97.09 -1071.65,-133.94 -175.47,-17.23 -333.14,-67.86 -507.16,-79.43 -380.51,-25.33 -1936.2,39.78 -2315.2,92.71 -169.49,23.67 -354.38,78.66 -522.13,90.79 -750.39,54.2 -1250.45,319.53 -1887.25,524.96 -268.38,86.55 -549.94,274.58 -803.14,402.72 -34.38,17.4 -765.37,384.24 -717.61,447.95 68.36,91.18 885.5,-364.57 1059.98,-443.83 209.29,-95.11 998.96,-368.39 1167.71,-378.92zm6426.35 6790.37c267.83,148.85 554.01,1387.21 482.88,1770.54 -83.58,450.5 -171.31,918.46 -405.42,1310.13 -348.04,582.29 -861.65,1066.07 -1506.33,1310.75 -1140.06,432.72 -1505.55,138.12 -1935.65,186 293.11,201.87 1432.89,230.77 1830.46,108.19 254.31,-78.44 551.1,-148.5 757.67,-278.49 205.7,-129.46 744.36,-492.11 873.08,-692.28 206.87,-321.81 443.25,-631.85 567.41,-977.37 230.58,-641.59 237.68,-1049.27 159.17,-1813.73 -2.4,-530.62 -733.61,-1518.48 -1196.06,-1857.87 -138,-101.26 -345.07,-168.12 -505.17,-256.76 -513.43,-284.28 -1328.75,-446.55 -1909.95,-303.53 134.63,63.13 304.5,40.18 460.32,59.53 427.52,53.16 1016.64,250.98 1375.91,487.13 129.59,85.19 624.4,538.74 702.85,652.33l248.83 295.43zm-2845.66 81.54c-761.39,169.62 -1398.24,956.21 -1197.76,1788.84 324.68,1348.4 1992.41,1627.28 2744.69,574.89 395.83,-553.72 383.05,-1122.48 43.03,-1713.66 -107.86,-187.49 -235.23,-267.12 -378.12,-383.24 -289.28,-235.08 -717.51,-376.97 -1211.84,-266.83z"/>
   <path class="fil0" d="M22373.7 11495.07c-127.69,172.65 -73.33,1378.81 -75.36,1690.59 -3.82,593.57 -5.13,1184.72 1.65,1778.31 6.1,536.14 44.76,686.54 170.9,1152.44 18.12,66.93 35.98,89.84 59.1,151.7 20.81,55.6 29.41,115.14 53.23,179.46 147.8,398.97 480.69,757.44 757.32,1042.38 315.43,324.88 586.69,559.27 1006.91,772.21 340.6,172.57 1014.27,323.74 1455.32,324.57 165.4,0.29 656.28,-46.94 816.5,-80.84 125.81,-26.6 2.43,-29.85 348.77,-90.69 116.03,-20.37 241.98,-76.2 321.06,-123.64 159.12,-95.41 311.51,-155.19 570.57,-318.78 260.25,-164.35 354.46,-183.87 527.09,-383.45 568.76,-657.65 701.75,-796.36 977.94,-1688.92 111.83,-361.34 136.06,-816.47 64.25,-1196.17 -64.68,-342.16 37.03,-240.2 -149.69,-739.61 -131.99,-353.04 -394.67,-889.43 -628.37,-1150.46 -141.52,-158.01 30.77,-9.3 -224.43,-240.5 -730.26,-661.57 -1379.36,-1045 -2475.07,-1084.72 -582.87,-21.16 -1192.31,-0.43 -1778.33,-1.98 -542.67,-1.43 -1279.6,-51.23 -1799.36,8.1zm1707.5 1767.01c-71.04,290.06 -36.53,1399.68 -20.43,1767.43 29.36,670.23 145.59,883.62 545.54,1279.05 373.97,369.74 731.47,543.56 1281.55,536.54 1712.17,-21.86 2713.22,-2346.88 744.29,-3472.66 -404.18,-231.1 -2483.44,-149.64 -2550.95,-110.36z"/>
   <path class="fil0" d="M-2485.34 18535.02c79.51,-333.01 29.83,-2962.97 26.23,-3507.69 -3.17,-483.38 -141.14,-1063.6 -326.62,-1449.79 -228.12,-474.96 -439.44,-729.24 -731.05,-1047.75 -189.86,-207.37 -513.82,-418.38 -755.82,-577.37 -95.41,-62.68 -187.72,-105.53 -291.86,-153.22 -326.06,-149.37 -1066.08,-312.81 -1471.04,-303.05l-763.25 122.71c-653.44,149.64 -630.87,197.45 -1232.09,544.86 -168.89,97.61 -382.65,236.46 -527.36,362.52l-422.23 444.85c-399.25,647.38 -628.14,1188.22 -630.67,2035.11 -1.5,498.36 120.44,1009.22 298.99,1477.55 54.25,142.27 421.25,668.38 526.73,806.52l425.68 463.86c99.01,99.73 673.4,450.65 819.09,514.21 123.4,53.8 224.65,46.91 344.57,99.21 139.89,61.01 222.23,37.66 365.22,79.91 531.71,157.14 1946.67,94.06 2573.72,95.11 296.36,0.47 592.75,0.3 889.11,0.28 257.05,0 640.67,22.92 882.65,-7.83zm-4131.73 -5209.33c-92.04,8.47 -284.26,115.08 -369.52,158.49l-298.64 229.87 -354.64 449.2c-32.45,65.39 -47.4,118.3 -83.91,191.2 -108.69,217.1 -195.25,618.1 -143.54,893.96 76.4,407.59 101.48,486.01 283.68,790.12 142.44,27.75 204.38,249.53 542.92,480.65 133.27,90.99 547.89,264.26 732.01,282.83 201.34,20.31 1723.88,5.18 2059.41,5.18 62.26,-423.77 33.8,-1011.59 31.96,-1462.27 -1.95,-478.76 -60.86,-923.76 -284.63,-1236.92 -242.06,-338.76 -417.93,-519.39 -824,-699.93 -411.43,-182.95 -828.95,-181.4 -1291.1,-82.38z"/>
   <path class="fil0" d="M5747.62 13332.18l-139.36 273.56 -129.04 510.36c-87.46,209.5 -128.96,717.34 -124.46,953.61 19.7,1031.8 327.93,1683.4 1015.46,2413.96l692.99 576.47c39.78,26.2 93.46,44.98 144.96,67.41 66.93,29.18 81.06,50.63 148.94,82.23 290.44,135.19 663.29,244.23 996.2,273.13 153.09,13.28 276.52,14.95 429.8,12.93 545.06,-7.22 2993.44,38.83 3424.58,-1.67 223.72,-21.03 148.31,-77.79 148.81,-693.64 0.23,-289.46 2.25,-578.49 5.62,-867.92 6.7,-575.72 13.78,-1138.59 -0.74,-1714.71 -6.48,-255.95 13.4,-347.41 -28.26,-608.99 -11.35,-71.16 -37.13,-98.14 -51.96,-159.35 -36.65,-151.29 21.39,-204.97 -58.48,-363.74 -79.48,-158.06 -97.21,-705.33 -762.96,-1396.09 -317.88,-329.83 -545.11,-502.53 -955.79,-758.31 -115.79,-72.11 -482.05,-161.34 -632.92,-214.77 -287.56,-101.87 -384.58,-131.14 -728.01,-139.47 -283.51,-6.88 -551.44,15.7 -825.9,23.15 -153.27,4.16 -554.34,119.02 -685.58,179.34 -427.18,196.41 -735.11,346.12 -1070.78,643.75 -160.88,142.67 -519.23,492.11 -614.57,656.56 -64.32,110.94 -64.06,140.81 -159.74,221.28 -36.68,30.85 -1.88,4.42 -38.81,30.92zm4946.39 3501.59c33.83,-254.63 18.62,-623.82 20.03,-896.13 1.56,-304.31 3.07,-606.92 -10.63,-911.1 -21.53,-478.04 -189.18,-971.95 -532.31,-1280.76 -562.17,-505.93 -1345.26,-675.75 -2057.52,-361.92 -127.9,56.37 -501.86,300.57 -560.64,370.55 -184.82,220.05 -457.43,584.76 -487.78,870 -14.88,139.67 -31.53,303.64 -30.41,445.3 3.88,486.36 94.61,705.16 336.39,1030.7 206.15,277.55 402.07,475.75 748.21,627.92 235.4,103.51 485.43,124.12 768.72,132.72 339.74,10.35 1572.11,34.85 1805.94,-27.28z"/>
   <path class="fil0" d="M18084.17 11508.22c-941.18,144.72 -1220.76,238.03 -1915.3,765.14 -459.87,348.99 -552.86,541.79 -839.12,959.79 -436.9,637.97 -554.77,1397.41 -502.51,2158.37 41.85,609.18 199.43,1010.4 473.33,1523.01l496.21 625.02c83.98,80.79 158.49,143.7 245.45,220.76 358.97,318.1 179.15,151.06 507.89,381.29 555.84,389.32 1497.42,526.16 2204.48,482.2 641.95,-39.9 1580.91,-392.96 2033.92,-842.42 44.43,-44.05 68.32,-80.29 111.61,-120.91 101.68,-95.46 124.12,-140.79 224.7,-240.51 186.29,-184.67 186.72,-233.5 295.2,-361.82 149.12,-176.32 144.85,-180.62 266.42,-410.91 41,-77.74 74.95,-234.73 113.86,-330.22 188.32,-462.03 222.85,-1067.65 198.97,-1607.47 -24.07,-544.03 -228.25,-933.53 -415.6,-1368.93 -145.46,-338.04 -551.68,-730.99 -833.8,-965.51 -319.48,-265.66 -70.43,-153.84 -524.11,-365.37 -208.82,-97.38 -375.19,-194.12 -601.67,-287.03 -241.35,-98.99 -440.8,-154.02 -704.75,-181.85 -299.57,-31.55 -531.22,-79.36 -835.18,-32.63zm-1532.3 3966.72c29.63,105.28 77.11,234.42 124.44,338.74 47.47,104.73 117.96,197.77 160.77,292.43 244,147.56 406.76,510.68 1017.94,709.16 493.39,160.19 1000.85,74 1394.46,-128.81 84.74,-43.69 174.8,-123.87 248.93,-174.3 543.44,-369.75 842,-1141.64 663.83,-1792.34 -35.38,-129.26 -23.45,-237.23 -83.06,-362.02 -238.6,-499.56 -394.7,-624.99 -824.59,-889.18 -332.75,-204.47 -980.72,-285.67 -1417.62,-140.58 -164.43,54.58 -428.6,198.37 -554.52,291.38 -168.46,124.46 -293.86,258.98 -416.95,450.55 -310.84,483.75 -353.04,692.83 -313.63,1404.97z"/>
   <path class="fil0" d="M48413.05 18586.55c76.14,-242.98 43.03,-572.27 43.06,-849.52 0,-167.6 36.73,-766.57 -20.83,-867.21 -59.83,-73.43 -612.42,-46.83 -700.93,-47.23l-2243.94 6.23c-507.36,2.67 -924.46,45.58 -1369.01,-136.19 -775.12,-316.91 -1182.31,-1064.28 -1069.6,-1903.25 75.83,-564.59 187.85,-584.27 491.23,-1011.29 183.82,-258.73 667.63,-429.05 1002.34,-499.41 723.14,-151.99 1638.6,248.23 1962.28,964.14 136.67,302.21 74.49,297.26 -99.18,474.53l-1702.75 1688.34c-107.52,163.67 80.18,145.35 183.54,150.55 487.79,24.6 1000.25,11.62 1490.25,9.57 656.38,-2.72 461.38,96.19 1061.85,-434.75l560.87 -560.19c95.64,-108.51 114.44,-155.49 260.48,-289.88 108.39,-99.74 197.9,-109.17 168.99,-400.1 -21.02,-211.9 -68.53,-443.43 -108.23,-654.6l-173.22 -567.42c-102.12,-254.13 -393.15,-708.71 -562.67,-918.88 -62.48,-77.48 -649.83,-643.13 -774.04,-729.19 -119.89,-83.03 -356.34,-186.47 -512.14,-249.87 -517.01,-210.4 -650.72,-247.41 -1215.09,-285.44 -267.98,-18.05 -437.62,-8.27 -688.48,47.06 -287.23,63.35 -141.12,-52.58 -636.1,124.89 -168.04,60.25 -347.56,157.92 -515.38,225.57 -169.55,68.34 -717.34,462.18 -879.38,623.65 -273.53,272.58 -468.21,496.56 -655.3,848.03 -84.01,157.81 -208.2,329.11 -255.53,506.93 -126.02,473.26 -175.27,800.67 -160,1323.96 7.98,272.15 46.98,419.92 78.34,670.82 31.9,255.38 66.33,246.33 188.69,568.05 146.22,384.34 370.37,640.45 563.85,938.61 184.62,284.53 508.25,474.6 819.54,683.43 398.02,267 514.46,309.11 1071.88,432.4 749.61,165.77 604.69,121.21 1387.28,121.29 989.2,0.05 2023.64,27.8 3007.33,-3.63z"/>
   <path class="fil0" d="M36832.22 18589.53c165.32,-102.79 90.31,-881.96 90.41,-1106.53l1.18 -2455.62c-1.8,-449.6 -32.51,-669.55 -190.8,-1043.74 -112.44,-265.76 -246.26,-620.98 -378.4,-849.53 -85.98,-148.74 -183.27,-212.67 -282.78,-330.89 -140.82,-167.29 -436.1,-488.4 -613.15,-614.82l-806.89 -421.02c-483.96,-182.15 -1035.45,-309.62 -1573.11,-264.06 -136.99,11.63 -428.13,37.95 -547.96,67.13 -84.34,20.56 -132.6,52.61 -226.08,71.51 -391.72,79.19 -722.89,251.01 -1054.35,491.83 -283.58,206.05 -547.31,565.45 -764.81,759.69 -167.07,149.22 -220.98,315.49 -363.6,567.77 -544.61,963.41 -394.82,2149.95 -394.72,3301.99 0.05,409.27 0.23,818.54 0.25,1227.82 0.05,673.05 -70.36,615.77 605.87,614.39 204.28,-0.42 409.78,-2.45 613.92,0.23 168.07,2.2 462.51,45.3 538.07,-76.54 70.93,-114.43 30.65,-991.36 29.35,-1194.34 -5.12,-801.44 -28.85,-1648.94 15.05,-2446.18 48.78,-886.16 917.99,-1801.06 2022.59,-1643.67 229.65,32.73 302.51,34.03 490.26,127.41 449.53,223.63 345.14,141.25 694.3,533.29 57.79,64.91 92.29,85.41 139.85,155.87 45.25,67.06 72.15,134.17 108.88,208.05 176.5,355.02 186.5,617.1 175.5,1054.17 -20.43,810.1 -2.83,1643.05 -2.8,2455.62 0,901.35 -69.28,812.27 425,810.97 416.27,-1.13 832.7,-0.8 1248.97,-0.8z"/>
   <path class="fil0" d="M2976.28 16073.36c-27.36,218.5 -424.9,490.38 -627.8,608.79 -141.34,82.54 -253.26,148.19 -429.58,184.2 -95.41,19.45 -184.7,27.93 -271.78,47.55 -225.53,50.84 -634.72,3.53 -803.99,-60.8 -49.76,-18.91 -55.84,-28.41 -120.64,-50.28 -202.33,-68.34 -228.31,-77.19 -409.85,-204.15 -182.6,-127.69 -373.42,-360.12 -502.31,-538.79 -161.57,-223.98 -334.01,-594.72 -348.99,-883.58 -56.56,-1088.8 97.43,-2446.79 -7.7,-3595.3 -84.04,51.99 -604.42,13.31 -747.06,11.08 -258.56,-4.05 -499.89,12.05 -752.84,9.1 -60.81,289.36 -22.51,1051.65 -21.41,1393.96 1.48,464.91 -10.9,934.04 -6.67,1397.17 2.2,240.15 13.9,479.4 5.65,720.31 -7.18,209.1 105.04,804.39 177.52,1046.22 32.65,109.01 20.83,43.03 56.23,112.61l175.8 525.54c27.1,171.02 280.36,448.68 386.67,558.67 84.46,87.43 134.19,172.14 229.67,257.33l262.66 224.37c54.06,37.21 93.64,53.53 142.54,90.66 46.38,35.23 76.64,65.86 133.99,98.51l657.88 316.57c159.47,75.11 206.22,64.18 366.19,119.56 400.37,138.62 1299.23,133.34 1735.68,9.48 910.56,-258.41 1228.7,-557.02 1809.59,-1091.56 187.1,-172.17 255.88,-322.71 413.15,-560.71 141.39,-214.03 227.8,-373.1 309.86,-664 38.9,-138.02 174.67,-663.43 179.74,-788.92 29.86,-737.49 28.98,-3154.9 -21.62,-3854.9 -188.6,-31.28 -1511.91,-44.43 -1627.12,0.1 -90.63,224.07 -28.3,2025.28 -24.08,2413.58 6.63,611.6 66.21,1382.91 -209.75,1946.7 -31.28,63.88 -95.06,156.95 -109.63,200.93z"/>
   <path class="fil0" d="M39301.66 18503.32c149.19,41.28 1426.57,34.62 1654.84,16.22l1.75 -8932.72c-17.3,-115.01 -85.86,-100.24 -208.7,-98.39l-1251.07 -0.25c-257.73,-3.77 -227.6,24.98 -225.25,373.92l0.55 3725.76c-0.02,825.6 0.25,1651.2 0.25,2476.79 0,385.32 -39.13,2242.19 27.63,2438.67z"/>
   <path class="fil0" d="M12768 18599.85c261.9,23.88 612.55,5.23 884,5.2 276.61,-0.02 622.4,42.58 846.58,-58.5 29.75,-1449.17 3.85,-2913.45 4.02,-4365.94 0.08,-733.86 0.33,-1467.72 0.68,-2201.58 0.3,-603.25 -31.46,-493.36 -618.43,-492.34 -381.92,0.65 -745.53,-7.9 -1129.25,4.85 -92.36,1471.3 -40.11,3759.52 -33.81,5356.38 2.15,548.97 -48.03,1235.02 46.21,1751.93z"/>
   <path class="fil0" d="M37230.67 18528.27c129.61,52.8 1514.45,43.83 1601.68,21.25 152.07,-39.33 113.44,-262.13 111.24,-431.45 -18.5,-1429.22 -0.7,-2961.55 -0.7,-4403.19 0,-394.82 44.96,-1935.38 -31.88,-2186.28 -206.15,-92.21 -773.14,-45.73 -1041.49,-42.63 -714.76,8.22 -663.98,-86.96 -663.76,450.7l-0.37 5504c0,260.45 -28.26,883.35 25.28,1087.6z"/>
   <path class="fil0" d="M18084.83 13562.81c-1067.15,248.98 -1491.58,1408.14 -1176.02,1955.16 112.59,195.17 102.94,374.39 343.36,608.77 78.67,76.68 104.82,125.19 209.98,192.32 350.86,223.95 730.04,368.99 1256.67,280.23 784.94,-132.27 1398.47,-1059.05 1205.32,-1810.78 -121.27,-471.93 -303.57,-741.52 -592.42,-952.99 -148.32,-108.59 -298.44,-221.01 -531.01,-252.98 -226.96,-31.2 -491.01,-72.19 -715.88,-19.73zm250.15 1038.15c-189.5,49.06 -239.33,23.45 -341.34,153.26 -73.16,93.14 -134.24,230.68 -99.57,391.25 87.26,403.82 674.84,579.37 905.51,223.9 68.98,-106.29 142.65,-213.27 98.63,-358.14 -68.9,-226.87 -265.1,-487.46 -563.23,-410.27z"/>
   <path class="fil0" d="M22310.47 20595.21c508.18,19.18 1224.92,47.63 1714.25,-15.98 82.43,-394.84 26.18,-975.59 32.8,-1402.71 3.08,-197.82 22.35,-504.83 -21.13,-688.21 -39.7,-167.32 -122.71,-132.61 -403.92,-337.66 -358.64,-261.56 -507.46,-366.87 -754.11,-685.41 -100.94,-130.36 -218.4,-281.65 -297.71,-422.6 -126.24,-224.35 -98.66,-285.1 -282.38,-439.5 -72.34,259.66 -25.76,1626.44 -25.91,2001.81 -0.2,470.66 -54.1,1614.34 38.11,1990.26z"/>
   <path class="fil0" d="M12431.51 13426.6c31.98,-937.24 19.53,-1885.38 14.7,-2823.59 -1.17,-232.85 -2.62,-465.7 -3.8,-698.55 -1.82,-365.02 85.94,-438.38 -293.38,-434.83 -213.2,2 -1309.08,-56.06 -1397.27,55.01 -58.68,73.93 -39.18,2014.51 -23.25,2058.41 32.63,89.81 295.51,267.69 379.34,336.29 351.65,287.81 820.65,702.96 1045.45,1092.56 60.88,105.53 190.55,382.29 278.21,414.7z"/>
   <path class="fil0" d="M29762.97 9521.76c-9.78,1082.8 -31.98,2305.32 -6.33,3388.7 2.63,111.11 -11.85,377.42 47.43,446.28 104.54,-80.89 456.63,-650.95 565.49,-812.55 71.14,-105.59 58.56,-96.81 170.35,-167.77l541.09 -497.03c136.59,-91.39 358.86,-128.27 400.62,-274.51 35.25,-123.44 10.82,-530.29 10.57,-684.33 -0.7,-458.53 -0.45,-917.08 -1.22,-1375.63 -189.52,-114.74 -1469.77,-103.42 -1728,-23.16z"/>
   <path class="fil0" d="M-11381.41 20754.28c88.39,27.05 178.02,34.08 238.48,-19.25 67.91,-79.94 31.28,-8676.32 31.3,-10301.36 0,-307.76 64.99,-540.79 -170.59,-525.04 -142.17,9.5 -138.79,68.26 -140.47,206.63 -1.3,105.93 -3.75,211.92 -4.72,318.36 -27.51,2965.97 -3.9,6003.45 1.42,8975.78 0.4,230.95 -40.35,1221.71 44.58,1344.88z"/>
   <path class="fil0" d="M12771.62 11186.73c244.68,27.38 1446.25,36.88 1671.02,11.43 54.69,-158.82 27.13,-1370.71 26.68,-1650.32 -177.14,-116.91 -572.01,-71.38 -859.65,-71.93 -211.82,-0.35 -423.65,-0.4 -635.45,-1.7 -280.46,-1.73 -237.68,10.77 -241.05,430.22 -2.4,299.86 -34.85,1031.85 38.45,1282.3z"/>
   <path class="fil0" d="M37278.7 11192.81c139.91,27.63 1500.32,26.2 1622.56,-5.88 78.36,-130.11 52.68,-1370.51 37.58,-1621.19 -147.29,-127.16 -573.49,-74.28 -794.12,-73.96 -141.09,0.2 -805.09,-23 -874.07,24.83 -116.77,80.96 -64.86,1521.53 8.05,1676.2z"/>
   <path class="fil0" d="M-25251.98 4700.22c704.25,-143.06 1186.16,-255.3 1934.1,-292.56 119.34,-5.95 247.03,-6.77 368.44,-8.47 90.29,-1.28 266.68,-5.83 347.29,43.63 128.77,1280 -71.61,3280.53 26.61,4600.81 129.24,43.46 419.84,-48.4 572.89,-74.86 318.08,-54.98 330.24,-43.1 330.14,-376.79 -0.18,-528.96 -43.86,-3909.23 10.17,-4127.49 112.79,-58.85 357.79,19.61 482.96,70.34 78.13,197.07 32.18,1761.8 32.4,2109.57 0.5,735.39 0.75,1470.77 0.75,2206.16 173.27,94.76 203.15,55.76 418.6,80.93 492.16,57.56 526.94,354.24 513.14,-953.43 -10.23,-969.12 -51.43,-2352.2 9.82,-3247.43 180.7,-45.28 862.23,225.4 1056.1,293.48 342.84,120.39 661.33,287.68 930.84,465.95 137.69,91.09 280.73,200.5 400.77,298.14 132.59,107.84 259,217.88 364.17,334.36 209.47,232.01 284.88,291.56 478.83,558.14 74.91,102.97 84.61,118.39 162.07,202.35 -12.76,-245.13 -802.37,-1030.17 -985.54,-1177.88 -280.64,-226.33 -1023.2,-641.56 -1392.87,-788.5 -160.92,-63.98 -369.04,-145.29 -544.84,-174.59 -237.4,-39.58 -323.28,-122.32 -439.7,-112.37 -41.75,3.58 -35,0.83 -68.38,18.41 -33.26,17.5 -5.3,1.52 -27.28,19.07 -114.36,91.54 -54.78,876.51 -55.01,1066.93 -0.55,471.63 47.08,3055.53 -14.72,3133.04 -66.26,40.96 -601.15,20.95 -683.63,-21.18 -87.31,-84.98 16.92,-3595.82 -22.11,-4212.82 -13.92,-220.55 -129.19,-250.27 -357.26,-256.8 -434.68,-12.43 -372.07,-8.48 -372.22,828.55l-0.75 2434.43c-0.28,240.86 27.33,1049.97 -20.4,1216.37 -138.47,44.2 -516.91,129.21 -678.13,110.24 -89.91,-476.93 13.07,-3656.03 -13.43,-4375.59 -6.3,-171.22 -23.93,-267.88 -191.75,-287.28 -367.42,-42.51 -582.49,61.58 -904.5,74.3 -169.1,6.68 -293.74,-1.4 -460.51,27.06 -71.68,12.22 -128.69,40.4 -201.85,52.23 -75.95,12.28 -156.09,8 -234.05,21.63 -176.99,31 -702.03,113.61 -771.16,221.92z"/>
   <path class="fil0" d="M-18890.76 9411.77c15.25,-348.41 34.65,-2431.06 -28.68,-2604.05 -173.25,-49.11 -586.87,-24.7 -799.29,-23.53 -24.68,496.81 -29.63,1605.11 -7.53,2147.08 9.45,232.18 -22.95,194.9 185.72,252.5 116.41,32.13 229.6,57.51 326.41,117.92 100.44,62.68 170.42,114.91 323.37,110.08z"/>
   <path class="fil0" d="M-18425.76 8035.44c-68.56,328.61 -35.65,1411.39 -2.82,1793.83l213 167.62c203.37,167.77 438.67,464.88 642,542.77 72.91,-313.91 39.03,-1880.4 26.9,-2459.24 -161.94,-128.29 -869.05,-51.38 -879.08,-44.98z"/>
   <path class="fil0" d="M-17639.92 10397.32c0.58,-344.6 50.46,-2154.78 -42.98,-2307.18 -134.79,-16.8 -317.36,1.5 -461.75,-0.02 -215.93,-2.25 -250.08,-17.95 -246.45,204.35l5.82 1407.26c20.13,121.62 153.39,194.15 229.55,257.23 48.71,40.33 68.14,73.51 117.67,114.17l252.45 214.32c57.98,49.53 70.06,91.21 145.69,109.87z"/>
   <path class="fil0" d="M-24040.22 8126.22l1.73 1354.84c0.07,316.83 2.27,323.54 571.42,-52.23 160.26,-105.82 106.78,-56.38 208.57,-110.27 45.78,-24.25 21.6,-10.5 42.66,-26.8l9.82 -1286.43c-216.55,-85.96 -216.85,-54.63 -463.2,-58.38 -360.5,-5.5 -371,-36.8 -371,179.27z"/>
   <path class="fil0 str0" d="M-18002.36 12414.33c78.51,764.46 71.41,1172.13 -159.17,1813.73 -124.16,345.52 -360.54,655.56 -567.41,977.37 -128.72,200.17 -667.38,562.81 -873.08,692.28 -206.58,129.99 -503.36,200.05 -757.67,278.48 -397.57,122.59 -1537.35,93.69 -1830.46,-108.18 430.1,-47.89 795.59,246.72 1935.65,-186 644.68,-244.68 1158.29,-728.46 1506.33,-1310.76 234.1,-391.67 321.84,-859.62 405.42,-1310.12 71.13,-383.32 -215.05,-1621.69 -482.88,-1770.54l268.06 648.25c33.78,89.74 33.65,170.22 54.78,262.29 151.27,659.7 87.23,1476.39 -268.23,2062.81 -68.26,112.59 -156.57,269.51 -242.73,370.7 -53.31,62.58 -92.56,111.48 -146.07,172.39 -55.88,63.63 -105.74,92.74 -159.19,157.32 -103.32,124.76 -546.44,475.05 -683.43,545.11 -602.1,307.96 -1410.19,426.93 -2068.62,279.86 -297.69,-66.51 -826.17,-288.41 -877.8,-284.98 -30.23,1.97 29.6,-42.48 -67.99,21.62 194.05,174.73 562.12,355.57 803.7,427.46 609.04,181.27 943.18,282.93 1590.96,162.94 108.11,-20 433.3,-68.23 513.96,-98.06 180.72,-66.79 266.23,-139.39 410.1,-204.63 260.28,-118.01 59.9,16.56 398.44,-215.7 258.16,-177.09 490.51,-324.58 654.51,-572.54 508.71,-769.19 537.73,-771.59 736.03,-1719.48 39.23,-187.49 36.28,-647.45 -22.4,-851.25 -20.9,-72.53 -22.45,-40.92 -36.3,-108.91 -14.56,-71.56 15.42,-75.63 -34.51,-131.46z"/>
   <path class="fil0" d="M3760.97 18104.67l-9.88 8.77c-55.61,189.35 -402.7,216.66 -425.52,384.47l1601.33 -2.52 -0.87 -1635.97 -514.11 676.83c-146.34,171.2 -403.22,514.61 -650.95,568.42z"/>
   <path class="fil0" d="M15226.96 11488.69c-192.6,47.08 -214.05,69.91 -312.38,207.83 -71.59,100.36 -137.42,210.45 -111.77,382.59 36.43,244.33 290.49,484.81 595.4,396.67 212.77,-61.53 472.78,-299.76 394.44,-583.99 -50.43,-183.02 -319.46,-463.28 -565.69,-403.1z"/>
   <path class="fil0" d="M21397.09 11525.5c-172.88,54.03 -216.73,80.58 -295.69,197.35 -359.54,531.48 440.68,1056.82 810.27,556.59 257.81,-348.92 -66.21,-894.08 -514.58,-753.94z"/>
   <path class="fil0" d="M21429.59 17669.14c-681.91,173.45 -466.81,1040 173.79,950.49 305.79,-42.73 426.88,-288.11 383.1,-578.97 -23.15,-153.89 -225.23,-455.88 -556.89,-371.52z"/>
   <path class="fil0" d="M15145.33 17693.55c-616.85,207.89 -347.42,1096.6 294.56,899.13 174.74,-53.76 375.54,-335.49 274.73,-589.7 -70.23,-177.12 -300.91,-399.9 -569.29,-309.43z"/>
  </g>
 </g>
</svg>
