<svg xmlns="http://www.w3.org/2000/svg" xml:space="preserve" width="2870.534" height="823.358" version="1.0" style="shape-rendering:geometricPrecision;text-rendering:geometricPrecision;image-rendering:optimizeQuality;fill-rule:evenodd;clip-rule:evenodd" viewBox="7.033 2.166 22.866 4.395"><path fill="#fff" class="fil0" d="M19.626 2.969c-.05.068-.03.543-.03.666q-.003.35 0 .7c.003.21.018.27.068.453.007.027.014.036.023.06.008.022.012.045.021.07.058.158.19.299.298.411.124.128.231.22.397.304.134.068.399.128.573.128.065 0 .258-.019.321-.032.05-.01.001-.012.137-.036a.4.4 0 0 0 .127-.048c.062-.038.122-.061.224-.126.103-.064.14-.072.208-.15.224-.26.276-.314.385-.666.044-.142.054-.321.025-.47-.025-.135.015-.095-.059-.292a1.7 1.7 0 0 0-.247-.453c-.056-.062.012-.003-.088-.094-.288-.26-.544-.412-.975-.427-.23-.009-.47 0-.7-.001-.214 0-.504-.02-.708.003m.672.696c-.028.114-.015.55-.008.695.011.264.057.348.215.504a.64.64 0 0 0 .504.211c.674-.008 1.068-.924.293-1.367-.159-.09-.978-.059-1.004-.043"/><path class="fil0" d="M9.839 5.74c.03-.13.011-1.166.01-1.38a1.5 1.5 0 0 0-.129-.571 1.5 1.5 0 0 0-.288-.413c-.074-.081-.202-.164-.297-.227a1 1 0 0 0-.115-.06 1.7 1.7 0 0 0-.58-.12l-.3.049c-.257.059-.248.077-.485.214a1.5 1.5 0 0 0-.207.143l-.167.175c-.157.255-.247.468-.248.801 0 .196.048.398.118.582.021.056.166.263.207.318l.168.182c.039.04.265.178.322.203.049.02.089.018.136.039.055.024.087.014.144.031.21.062.766.037 1.013.038h.35c.101 0 .252.009.348-.003M8.212 3.69c-.036.003-.112.045-.146.062l-.117.09-.14.177c-.013.026-.018.047-.033.076a.7.7 0 0 0 .055.663c.056.01.08.098.214.189a1 1 0 0 0 .288.111c.08.008.679.002.811.002.025-.167.013-.398.013-.575-.001-.189-.024-.364-.112-.487a.7.7 0 0 0-.325-.276.8.8 0 0 0-.508-.032m4.868.002-.055.108-.05.2a1.3 1.3 0 0 0-.05.376c.008.406.13.663.4.95l.273.228c.015.01.037.017.057.026.026.012.032.02.059.033a1.24 1.24 0 0 0 .56.112c.216-.003 1.18.015 1.35 0 .087-.009.058-.031.058-.274l.002-.341c.003-.227.005-.449 0-.675-.003-.101.005-.137-.011-.24-.005-.028-.015-.039-.02-.063-.015-.06.008-.08-.024-.143-.031-.062-.038-.278-.3-.55a1.7 1.7 0 0 0-.377-.298c-.045-.029-.19-.064-.249-.085a.7.7 0 0 0-.286-.055c-.112-.002-.217.006-.326.01-.06.001-.218.046-.27.07a1.54 1.54 0 0 0-.663.512c-.025.044-.025.055-.063.087-.014.012 0 .002-.015.012m1.947 1.379c.014-.1.008-.246.008-.353q.002-.18-.004-.359c-.009-.188-.075-.382-.21-.504a.75.75 0 0 0-.81-.142c-.05.022-.197.118-.22.145-.073.087-.18.23-.192.343a2 2 0 0 0-.012.175.58.58 0 0 0 .132.406c.081.11.158.187.295.247.092.041.19.05.302.053.134.004.62.013.711-.011"/><path fill="#fff" class="fil0" d="M17.937 2.974c-.37.057-.48.094-.754.301-.181.138-.218.214-.33.378-.173.251-.22.55-.198.85.016.24.078.398.186.6l.195.246c.033.031.063.056.097.087.141.125.07.06.2.15.219.153.59.207.868.19.252-.016.622-.155.8-.332.018-.017.027-.032.044-.048.04-.037.05-.055.089-.094.073-.073.073-.092.116-.143.059-.07.057-.071.105-.162.016-.03.03-.092.045-.13.074-.182.088-.42.078-.633s-.09-.367-.163-.538c-.058-.134-.218-.288-.329-.38-.126-.105-.027-.061-.206-.144-.082-.039-.148-.077-.237-.113a1 1 0 0 0-.277-.072c-.118-.012-.21-.031-.33-.013m-.603 1.562c.011.041.03.092.049.133.018.041.046.078.063.115.096.058.16.201.4.28a.72.72 0 0 0 .55-.051c.033-.017.068-.049.098-.069a.68.68 0 0 0 .26-.705c-.013-.051-.008-.094-.032-.143-.094-.197-.155-.246-.324-.35a.77.77 0 0 0-.559-.055 1 1 0 0 0-.218.114.6.6 0 0 0-.164.178c-.122.19-.139.272-.123.553M29.877 5.76c.03-.095.017-.224.017-.334 0-.066.015-.301-.008-.341-.024-.029-.241-.018-.276-.019l-.883.003c-.2 0-.364.018-.54-.054a.68.68 0 0 1-.42-.75c.03-.221.074-.23.193-.397.072-.102.263-.17.395-.197.284-.06.645.098.772.38.054.119.03.117-.039.187l-.67.664c-.043.065.031.057.072.06.192.01.394.004.587.003.258 0 .181.038.418-.17l.22-.221c.038-.043.046-.062.103-.115.043-.039.078-.043.067-.157-.009-.084-.027-.175-.043-.258l-.068-.223a2 2 0 0 0-.222-.362 4 4 0 0 0-.304-.287 1.3 1.3 0 0 0-.202-.098 1.2 1.2 0 0 0-.478-.113.9.9 0 0 0-.272.019c-.113.025-.055-.021-.25.049-.066.024-.137.062-.203.089a2 2 0 0 0-.346.245 1.3 1.3 0 0 0-.258.334c-.033.062-.082.13-.1.2a1.6 1.6 0 0 0-.064.52c.003.108.019.166.031.265.013.1.026.097.074.224.058.151.146.252.222.37.073.111.2.186.323.268.157.105.203.122.422.17.295.066.238.048.546.048.39 0 .797.011 1.184-.001m-4.559.001c.065-.04.035-.347.035-.436l.001-.966a.9.9 0 0 0-.075-.411c-.044-.105-.097-.245-.15-.335-.033-.058-.071-.083-.11-.13a2 2 0 0 0-.242-.242l-.318-.166A1.45 1.45 0 0 0 23.624 3c-.033.008-.052.02-.089.028a1.05 1.05 0 0 0-.415.193c-.111.082-.215.223-.3.3-.067.058-.088.124-.144.223-.214.38-.155.846-.155 1.3v.483c0 .265-.028.243.238.242h.242c.066.001.182.018.212-.03.028-.045.012-.39.011-.47-.002-.315-.011-.65.006-.963.02-.349.362-.71.797-.647.09.013.119.013.193.05.177.088.135.056.273.21.023.026.036.034.055.061.018.027.028.053.043.082.07.14.073.243.069.415-.008.32-.001.647-.001.967 0 .355-.027.32.167.32z"/><path class="fil0" d="M11.989 4.771c-.011.086-.167.193-.247.24a.5.5 0 0 1-.17.073c-.037.007-.072.01-.107.018a.7.7 0 0 1-.316-.024c-.02-.007-.022-.01-.048-.02a.5.5 0 0 1-.16-.08 1 1 0 0 1-.199-.212.75.75 0 0 1-.137-.348c-.022-.428.038-.963-.003-1.415-.033.02-.238.005-.294.004-.102-.001-.197.005-.297.004-.024.114-.008.414-.008.549 0 .183-.004.367-.003.55.001.094.006.188.003.283-.003.083.04.317.07.412.012.043.008.017.022.044l.069.207c.01.068.11.177.152.22.033.035.053.068.09.102l.104.088c.021.015.037.021.056.036.018.013.03.026.053.038l.259.125c.063.03.08.025.144.047.158.055.511.053.683.004.359-.102.484-.22.713-.43.073-.068.1-.127.162-.22a.8.8 0 0 0 .122-.262c.016-.054.07-.261.071-.31.012-.291.012-1.243-.008-1.518-.075-.013-.596-.018-.641 0-.036.088-.011.797-.01.95.003.24.027.544-.082.766-.012.025-.037.062-.043.08"/><path fill="#fff" class="fil0" d="M26.29 5.728c.059.016.562.014.652.007V2.218c-.006-.046-.033-.04-.082-.04h-.492c-.102 0-.09.01-.09.148l.001 1.467v.975c0 .152-.015.883.011.96m-10.446.038c.103.01.241.002.348.002.109 0 .245.017.333-.023.012-.57.002-1.147.002-1.719V3.16c0-.238-.012-.195-.243-.194-.15 0-.294-.003-.445.002-.036.579-.016 1.48-.013 2.108 0 .217-.02.487.018.69m9.631-.028c.05.02.596.017.63.008.06-.015.045-.103.044-.17-.007-.562 0-1.166 0-1.733 0-.156.018-.762-.013-.86-.08-.037-.304-.019-.41-.018-.281.004-.261-.034-.261.178V5.31c0 .102-.011.348.01.428m-7.538-1.955c-.42.098-.587.554-.463.77.044.077.04.147.135.24.031.03.041.049.083.075a.66.66 0 0 0 .495.11c.309-.052.55-.416.474-.712-.048-.186-.12-.292-.233-.376-.058-.042-.118-.087-.21-.1-.088-.011-.192-.028-.281-.007m.099.409c-.075.02-.095.009-.135.06a.2.2 0 0 0-.04.154c.035.16.267.228.357.088.028-.042.057-.084.04-.14-.028-.09-.105-.193-.222-.162m1.564 2.36c.2.007.483.018.676-.007.032-.155.01-.384.012-.552.002-.078.01-.199-.008-.27-.015-.067-.048-.053-.159-.134-.141-.103-.2-.144-.297-.27-.04-.05-.086-.11-.117-.166-.05-.088-.039-.112-.111-.173-.029.102-.01.64-.01.788 0 .185-.022.636.015.784m-3.89-2.822c.013-.37.008-.743.006-1.112l-.001-.275c-.001-.144.033-.173-.116-.171-.084 0-.515-.023-.55.021-.023.03-.015.793-.01.81.014.036.117.106.15.133.139.113.323.277.412.43.024.042.075.15.11.163m6.823-1.537c-.004.426-.013.908-.003 1.334.001.044-.004.149.019.176.041-.032.18-.256.223-.32.028-.042.023-.038.067-.066l.213-.196c.053-.036.14-.05.157-.108.014-.048.005-.209.005-.27l-.001-.54c-.075-.046-.579-.042-.68-.01m-6.69.656c.097.01.57.014.658.004.022-.062.01-.54.01-.65-.07-.046-.225-.028-.338-.028h-.25c-.11-.001-.094.004-.095.169 0 .118-.014.406.015.505m9.649.002c.055.01.59.01.638-.002.031-.052.021-.54.015-.639-.058-.05-.225-.029-.312-.029-.056 0-.317-.009-.344.01-.046.032-.026.6.003.66"/><path class="fil0" d="m12.298 5.571-.004.004c-.022.074-.159.085-.168.151l.63-.001v-.644l-.202.266c-.058.068-.159.203-.256.224"/><path fill="#fff" class="fil0" d="M16.812 2.966c-.076.019-.084.028-.123.082-.028.04-.054.083-.044.15.014.097.114.192.234.157.084-.024.186-.118.156-.23-.02-.072-.126-.182-.223-.159m2.429.014c-.068.022-.085.033-.116.079-.142.209.173.416.319.219.101-.138-.026-.352-.203-.297m.013 2.419c-.269.068-.184.41.068.374.12-.017.168-.114.151-.228-.009-.06-.089-.18-.22-.146m-2.473.01c-.243.081-.137.431.116.353.069-.02.148-.132.108-.232-.028-.07-.119-.157-.224-.122"/></svg>