<svg xmlns="http://www.w3.org/2000/svg" xml:space="preserve" width="210mm" height="297mm" version="1.1" style="shape-rendering:geometricPrecision; text-rendering:geometricPrecision; image-rendering:optimizeQuality; fill-rule:evenodd; clip-rule:evenodd" viewBox="0 0 21000 29700" xmlns:xlink="http://www.w3.org/1999/xlink" xmlns:xodm="http://www.corel.com/coreldraw/odm/2003" transform="matrix(-1,0,0,1,0,0)">
 <defs>
  <style type="text/css">
   
    .str0 {stroke:#FEFEFE;stroke-width:7.62;stroke-miterlimit:22.9256}
    .fil0 {fill:#FEFEFE}
   
  </style>
 </defs>
 <g id="Layer_x0020_1">
  <metadata id="CorelCorpID_0Corel-Layer"></metadata>
  <g id="_2172146098720">
   <path class="fil0" d="M5708.88 4700.22c69.13,-108.31 594.17,-190.92 771.16,-221.92 77.96,-13.63 158.1,-9.36 234.06,-21.63 73.15,-11.83 130.16,-40.01 201.84,-52.23 166.77,-28.46 291.41,-20.38 460.5,-27.06 322.02,-12.72 537.1,-116.81 904.51,-74.3 167.82,19.4 185.45,116.06 191.75,287.28 26.51,719.56 -76.49,3898.65 13.43,4375.59 161.22,18.98 539.66,-66.04 678.13,-110.24 47.73,-166.39 20.13,-975.51 20.4,-1216.37l0.75 -2434.43c0.15,-837.03 -62.45,-840.97 372.22,-828.55 228.07,6.53 343.33,36.25 357.27,256.81 39.02,616.99 -65.21,4127.82 22.09,4212.81 82.49,42.14 617.38,62.14 683.63,21.18 61.82,-77.5 14.19,-2661.42 14.73,-3133.04 0.23,-190.43 -59.35,-975.39 55.01,-1066.93 21.98,-17.55 -5.97,-1.57 27.28,-19.07 33.37,-17.58 26.63,-14.83 68.38,-18.4 116.41,-9.95 202.3,72.78 439.7,112.36 175.8,29.3 383.93,110.61 544.84,174.6 369.67,146.93 1112.23,562.16 1392.87,788.48 183.17,147.72 972.79,932.76 985.53,1177.9l361.67 671.14c92.64,177.15 328.25,943.64 356.35,1189.17 103.44,902.96 15.79,1468.28 -219.21,2314.67 -41.42,149.22 -383.21,823.08 -500.58,1066.91 -269.18,559.28 -334.86,304.73 -376.79,933.7 -9.9,148.67 -13.78,185.42 -49.24,239.43 -62.27,-462.05 -98.88,-815.29 -262.05,-1220.39 -72.96,-181.18 -140.6,-342.87 -229.48,-510.99 -156.07,-295.08 -404.47,-606.52 -624.07,-858.47 -107.61,-123.47 -672.23,-519.96 -841.3,-640.45 -289.63,-206.43 -743.56,-312.02 -1081.85,-420.7 -92.99,-29.88 -198.62,-44.61 -300.91,-51.83 -139.87,-9.91 -218.03,-38.46 -338.41,-50.06 -345.32,-33.28 -1012.8,24.83 -1313.51,124.29 -126.51,41.83 -165.65,11.1 -281.43,78.56 -270.59,157.62 -240.36,37.9 -760.17,362.47 -63.31,39.53 -165.89,99.16 -215.25,144.31 -170.01,155.64 -155.27,83.89 -313.73,257.78 -217,238.11 -648.93,475.31 -949.01,1103.93l-341.22 760.72c-37.13,76.9 -47.41,219.53 -67.91,313.78 -94.39,434.18 -70.48,926.96 -2.37,1374.59 43.05,282.88 238.3,944.76 362.99,1139.38l309.08 431.8c150.83,205.1 496.92,627.93 690.39,791.67 133.09,112.62 279.86,212.15 453.27,308.76 296.72,165.3 667.09,370.67 1039.92,440.3 242.14,45.21 367.23,97.29 637.8,107.32 231.13,8.58 504.29,-0.75 727.24,37.52 -555.24,207.08 -945.61,146.15 -1502.17,81.27 -190.05,-22.16 -311.21,-67.84 -481.36,-85.67 -91.01,189.71 -185.85,510.47 -247.1,725.24 -59.73,209.37 -167.08,584.17 -183.27,792.04 -29.81,382.45 -42.08,217.33 -74.51,410.28 -24.68,146.82 -31.7,282.11 -59.54,426.1 -60.71,314.11 -38.18,599.42 -80.85,918.58 -81.64,610.5 -10.44,1233.54 38.4,1843.71 21.85,273.14 70.55,570.85 150.04,817.65 43.46,134.92 27.53,235.48 86.41,399.08 190.82,530.13 173.4,546.54 476.45,1005.57 134.74,204.11 270.36,369.01 447.71,526.18 303.66,269.11 847.77,554.06 1411.81,560.19 537.49,5.83 719.44,-80.71 1112.89,-351.04 75.26,-51.71 182.64,-184.92 250.58,-257.98 136.56,-146.89 221.52,-476.69 254.5,-717.98 43.98,-321.69 -43.6,-619.88 -41.28,-951.21 100.04,-38.47 147.37,-94.89 250.32,-153.35 94.92,-53.88 180.6,-99.03 279.04,-143.67 82.56,-37.4 215.65,-81.51 283.64,-119.51 108.33,-60.61 187.71,-33.48 323.06,-99.67 211.23,-103.3 379.82,-166.16 454.4,-372.36 110.78,-306.24 -142.26,-392.2 -188.07,-609.77 259.1,-91.14 657.9,30.2 1049.72,-136.67 485.78,-206.87 3.26,-1555.49 839.47,-1576.39 228.99,-5.69 913.74,-26.4 1083.88,-120.01 318.51,-175.24 475.38,-254.83 509.69,-701.61 52.8,-687.85 -396.32,-2060.87 -123.54,-3317.21 83.51,-384.6 576.47,-1260.43 767.89,-1939.97l184.87 -724.22c80.26,-333.59 121.74,-687.23 167.72,-1038.72 85.61,-654.43 50.71,-1613.99 -79.34,-2266.19 -200.29,-1004.55 -189.84,-817.5 -618.29,-1794.26 -264.78,-603.62 -122.36,-284.98 -434.71,-750.03 -507.28,-755.29 -449.97,-690.64 -1091.3,-1322.51 -313.96,-309.31 -259.47,-281.38 -641.27,-565.69l-500.96 -387.83c-49.25,-33.9 -135.94,-78.61 -201.47,-115.68 -124.14,-70.26 -256.54,-158.85 -378.15,-215.33 -155.32,-72.14 -265.93,-125.83 -410.5,-203.57 -293.26,-157.67 -554.58,-220.06 -859.9,-346.14 -315.29,-130.19 -594.44,-189.95 -938.76,-266.81 -368.19,-82.21 -696.23,-97.09 -1071.65,-133.94 -175.47,-17.23 -333.14,-67.86 -507.16,-79.43 -380.51,-25.33 -1936.2,39.78 -2315.2,92.71 -169.49,23.67 -354.38,78.66 -522.13,90.79 -750.39,54.2 -1250.45,319.53 -1887.25,524.96 -268.38,86.55 -549.94,274.58 -803.14,402.72 -34.38,17.4 -765.37,384.24 -717.61,447.95 68.36,91.18 885.5,-364.57 1059.98,-443.83 209.29,-95.11 998.96,-368.39 1167.71,-378.92zm6426.35 6790.37c267.83,148.85 554.01,1387.21 482.88,1770.54 -83.58,450.5 -171.31,918.46 -405.42,1310.13 -348.04,582.29 -861.65,1066.07 -1506.33,1310.75 -1140.06,432.72 -1505.55,138.12 -1935.65,186 293.11,201.87 1432.89,230.77 1830.46,108.19 254.31,-78.44 551.1,-148.5 757.67,-278.49 205.7,-129.46 744.36,-492.11 873.08,-692.28 206.87,-321.81 443.25,-631.85 567.41,-977.37 230.58,-641.59 237.68,-1049.27 159.17,-1813.73 -2.4,-530.62 -733.61,-1518.48 -1196.06,-1857.87 -138,-101.26 -345.07,-168.12 -505.17,-256.76 -513.43,-284.28 -1328.75,-446.55 -1909.95,-303.53 134.63,63.13 304.5,40.18 460.32,59.53 427.52,53.16 1016.64,250.98 1375.91,487.13 129.59,85.19 624.4,538.74 702.85,652.33l248.83 295.43zm-2845.66 81.54c-761.39,169.62 -1398.24,956.21 -1197.76,1788.84 324.68,1348.4 1992.41,1627.28 2744.69,574.89 395.83,-553.72 383.05,-1122.48 43.03,-1713.66 -107.86,-187.49 -235.23,-267.12 -378.12,-383.24 -289.28,-235.08 -717.51,-376.97 -1211.84,-266.83z"></path>
   <path class="fil0" d="M5708.88 4700.22c704.25,-143.06 1186.16,-255.3 1934.1,-292.56 119.34,-5.95 247.03,-6.77 368.44,-8.47 90.29,-1.28 266.68,-5.83 347.29,43.63 128.77,1280 -71.61,3280.53 26.61,4600.81 129.24,43.46 419.84,-48.4 572.89,-74.86 318.08,-54.98 330.24,-43.1 330.14,-376.79 -0.18,-528.96 -43.86,-3909.23 10.17,-4127.49 112.79,-58.85 357.79,19.61 482.96,70.34 78.13,197.07 32.18,1761.8 32.4,2109.57 0.5,735.39 0.75,1470.77 0.75,2206.16 173.27,94.76 203.15,55.76 418.6,80.93 492.16,57.56 526.94,354.24 513.14,-953.43 -10.23,-969.12 -51.43,-2352.2 9.82,-3247.43 180.7,-45.28 862.23,225.4 1056.1,293.48 342.84,120.39 661.33,287.68 930.84,465.95 137.69,91.09 280.73,200.5 400.77,298.14 132.59,107.84 259,217.88 364.17,334.36 209.47,232.01 284.88,291.56 478.83,558.14 74.91,102.97 84.61,118.39 162.07,202.35 -12.76,-245.13 -802.37,-1030.17 -985.54,-1177.88 -280.64,-226.33 -1023.2,-641.56 -1392.87,-788.5 -160.92,-63.98 -369.04,-145.29 -544.84,-174.59 -237.4,-39.58 -323.28,-122.32 -439.7,-112.37 -41.75,3.58 -35,0.83 -68.38,18.41 -33.26,17.5 -5.3,1.52 -27.28,19.07 -114.36,91.54 -54.78,876.51 -55.01,1066.93 -0.55,471.63 47.08,3055.53 -14.72,3133.04 -66.26,40.96 -601.15,20.95 -683.63,-21.18 -87.31,-84.98 16.92,-3595.82 -22.11,-4212.82 -13.92,-220.55 -129.19,-250.27 -357.26,-256.8 -434.68,-12.43 -372.07,-8.48 -372.22,828.55l-0.75 2434.43c-0.28,240.86 27.33,1049.97 -20.4,1216.37 -138.47,44.2 -516.91,129.21 -678.13,110.24 -89.91,-476.93 13.07,-3656.03 -13.43,-4375.59 -6.3,-171.22 -23.93,-267.88 -191.75,-287.28 -367.42,-42.51 -582.49,61.58 -904.5,74.3 -169.1,6.68 -293.74,-1.4 -460.51,27.06 -71.68,12.22 -128.69,40.4 -201.85,52.23 -75.95,12.28 -156.09,8 -234.05,21.63 -176.99,31 -702.03,113.61 -771.16,221.92z"></path>
   <path class="fil0" d="M12070.1 9411.77c15.25,-348.41 34.65,-2431.06 -28.68,-2604.05 -173.25,-49.11 -586.87,-24.7 -799.29,-23.53 -24.68,496.81 -29.63,1605.11 -7.53,2147.08 9.45,232.18 -22.95,194.9 185.72,252.5 116.41,32.13 229.6,57.51 326.41,117.92 100.44,62.68 170.42,114.91 323.37,110.08z"></path>
   <path class="fil0" d="M12535.1 8035.44c-68.56,328.61 -35.65,1411.39 -2.82,1793.83l213 167.62c203.37,167.77 438.67,464.88 642,542.77 72.91,-313.91 39.03,-1880.4 26.9,-2459.24 -161.94,-128.29 -869.05,-51.38 -879.08,-44.98z"></path>
   <path class="fil0" d="M13320.94 10397.32c0.58,-344.6 50.46,-2154.78 -42.98,-2307.18 -134.79,-16.8 -317.36,1.5 -461.75,-0.02 -215.93,-2.25 -250.08,-17.95 -246.45,204.35l5.82 1407.26c20.13,121.62 153.39,194.15 229.55,257.23 48.71,40.33 68.14,73.51 117.67,114.17l252.45 214.32c57.98,49.53 70.06,91.21 145.69,109.87z"></path>
   <path class="fil0" d="M6920.64 8126.22l1.73 1354.84c0.07,316.83 2.27,323.54 571.42,-52.23 160.26,-105.82 106.78,-56.38 208.57,-110.27 45.78,-24.25 21.6,-10.5 42.66,-26.8l9.82 -1286.43c-216.55,-85.96 -216.85,-54.63 -463.2,-58.38 -360.5,-5.5 -371,-36.8 -371,179.27z"></path>
   <path class="fil0 str0" d="M12958.5 12414.33c78.51,764.46 71.41,1172.13 -159.17,1813.73 -124.16,345.52 -360.54,655.56 -567.41,977.37 -128.72,200.17 -667.38,562.81 -873.08,692.28 -206.58,129.99 -503.36,200.05 -757.67,278.48 -397.57,122.59 -1537.35,93.69 -1830.46,-108.18 430.1,-47.89 795.59,246.72 1935.65,-186 644.68,-244.68 1158.29,-728.46 1506.33,-1310.76 234.1,-391.67 321.84,-859.62 405.42,-1310.12 71.13,-383.32 -215.05,-1621.69 -482.88,-1770.54l268.06 648.25c33.78,89.74 33.65,170.22 54.78,262.29 151.27,659.7 87.23,1476.39 -268.23,2062.81 -68.26,112.59 -156.57,269.51 -242.73,370.7 -53.31,62.58 -92.56,111.48 -146.07,172.39 -55.88,63.63 -105.74,92.74 -159.19,157.32 -103.32,124.76 -546.44,475.05 -683.43,545.11 -602.1,307.96 -1410.19,426.93 -2068.62,279.86 -297.69,-66.51 -826.17,-288.41 -877.8,-284.98 -30.23,1.97 29.6,-42.48 -67.99,21.62 194.05,174.73 562.12,355.57 803.7,427.46 609.04,181.27 943.18,282.93 1590.96,162.94 108.11,-20 433.3,-68.23 513.96,-98.06 180.72,-66.79 266.23,-139.39 410.1,-204.63 260.28,-118.01 59.9,16.56 398.44,-215.7 258.16,-177.09 490.51,-324.58 654.51,-572.54 508.71,-769.19 537.73,-771.59 736.03,-1719.48 39.23,-187.49 36.28,-647.45 -22.4,-851.25 -20.9,-72.53 -22.45,-40.92 -36.3,-108.91 -14.56,-71.56 15.42,-75.63 -34.51,-131.46z"></path>
  </g>
 </g>
</svg>